<svg width="53" height="60" viewBox="0 0 53 60" fill="none" xmlns="http://www.w3.org/2000/svg">
<path d="M29.561 5.35431C36.6309 12.5845 38.6673 20.5409 34.2328 28.819C29.7217 37.2401 27.8444 45.4205 30.5326 54.3503C30.7576 55.4347 31.1859 56.5425 31.1859 57.9518C19.7846 53.1026 14.595 41.2294 18.9455 31.0493C20.8675 26.552 23.795 22.2995 24.8523 17.6502C25.8727 13.1635 25.0732 8.30899 25.0732 2.60687C26.9979 3.57295 28.5893 4.4385 29.561 5.35431Z" fill="white"/>
<path d="M46.6867 20.1306C51.6593 25.8914 52.8214 31.9671 49.1132 37.9879C45.341 44.1125 43.5561 50.1771 45.1626 57.0148C45.2816 57.8404 45.552 58.6931 45.4872 59.7527C37.155 55.5833 33.8069 46.4178 37.5395 38.9632C39.1885 35.6699 41.5808 32.6069 42.588 29.1597C43.56 25.8329 43.1834 22.1462 43.4456 17.8588C44.8454 18.6735 45.9997 19.3974 46.6867 20.1306Z" fill="white"/>
<path d="M13.2222 3.0127C17.9388 8.98491 18.8347 15.1056 14.8674 20.9589C10.8316 26.9131 8.78393 32.8941 10.0906 39.7953C10.1735 40.6254 10.4065 41.489 10.2955 42.5448C2.15307 38.0159 -0.792063 28.7131 3.26223 21.4284C5.0533 18.2102 7.57693 15.2544 8.73352 11.8544C9.8497 8.57323 9.63423 4.8736 10.0832 0.601754C11.4461 1.47675 12.5678 2.25025 13.2222 3.0127Z" fill="white"/>
</svg>
