<svg width="36" height="41" viewBox="0 0 36 41" fill="none" xmlns="http://www.w3.org/2000/svg">
<path d="M20.2 3.65879C25.0312 8.59942 26.4227 14.0363 23.3924 19.693C20.3099 25.4474 19.027 31.0373 20.864 37.1394C21.0178 37.8804 21.3104 38.6374 21.3104 39.6004C13.5195 36.2868 9.97325 28.1734 12.9461 21.217C14.2595 18.1439 16.2599 15.238 16.9824 12.061C17.6797 8.99504 17.1334 5.67782 17.1334 1.78137C18.4486 2.44152 19.5361 3.03298 20.2 3.65879Z" fill="black"/>
<path d="M31.9025 13.7559C35.3005 17.6925 36.0946 21.8442 33.5606 25.9584C30.9829 30.1436 29.7633 34.2877 30.861 38.9601C30.9423 39.5243 31.1271 40.1069 31.0829 40.831C25.3892 37.982 23.1013 31.7189 25.6519 26.6249C26.7787 24.3745 28.4135 22.2814 29.1017 19.9258C29.7659 17.6525 29.5085 15.1333 29.6877 12.2036C30.6443 12.7603 31.4331 13.2549 31.9025 13.7559Z" fill="black"/>
<path d="M9.03503 2.05868C12.258 6.13969 12.8703 10.3222 10.1593 14.3219C7.4015 18.3906 6.00223 22.4777 6.89514 27.1935C6.95177 27.7607 7.11098 28.3508 7.03515 29.0723C1.47114 25.9776 -0.541365 19.6206 2.22907 14.6427C3.45297 12.4436 5.17745 10.4238 5.96779 8.10051C6.73051 5.85838 6.58327 3.33029 6.89008 0.411199C7.82141 1.00911 8.5879 1.53767 9.03503 2.05868Z" fill="black"/>
</svg>
