<svg width="390" height="307" viewBox="0 0 390 307" fill="none" xmlns="http://www.w3.org/2000/svg">
<path d="M117.744 224.514C117.128 223.267 116.511 222.019 115.691 220.613C108.54 206.17 106.008 190.895 105.341 175.209C105.191 171.681 105.854 168.488 109.758 167.055C111.61 168.433 113.031 170.079 114.765 170.536C125.968 173.489 137.503 173.929 148.995 174.473C155.829 174.797 162.684 174.695 169.835 174.879C171.619 175.008 173.099 175.043 174.948 175.137C184.218 175.095 193.119 174.992 201.913 175.157C201.231 175.645 200.663 176.037 200.079 176.06C192.466 176.358 184.853 176.692 177.236 176.834C170.433 176.961 163.625 176.861 156.819 176.861C162.361 177.671 167.902 177.607 173.44 177.709C175.169 177.74 176.89 178.218 178.381 178.709C175.254 179.094 172.36 179.262 169.834 179.409C177.636 180.318 185.731 181.262 194.012 182.227C194.751 180.106 193.872 179.189 191.212 179.164C187.795 179.131 184.383 178.733 181.19 178.252C190.634 177.911 199.857 177.809 208.994 178.011C207.595 178.613 206.291 179.118 204.969 179.17C201.772 179.296 198.566 179.211 194.093 179.211C195.285 181.876 195.973 183.639 196.842 185.309C198.784 189.045 201.421 192.539 202.696 196.479C206.076 206.926 205.095 217.516 202.874 228.13C199.867 242.496 191.633 251.558 177.177 254.82C176.286 255.021 175.536 255.841 174.453 256.354C173.835 256.281 173.484 256.228 173.013 256.031C172.686 255.724 172.449 255.661 171.874 255.676C163.915 254.298 156.267 252.943 148.799 251.374C149.99 250.155 151.107 249.234 151.994 248.129C155.092 244.267 155.718 239.746 153.549 236.769C152.255 236.447 151.05 236.361 149.853 235.991C152.506 233.145 154.475 233.267 156.113 236.468C157.87 239.902 159.113 243.599 160.893 247.019C161.405 248.003 162.999 248.425 164.097 249.106C164.426 247.979 164.871 246.87 165.035 245.72C165.117 245.145 164.654 244.504 164.486 243.88C159.97 227.079 154.679 210.418 155.226 192.702C155.309 190.009 154.049 188.866 151.314 188.499C144.045 187.525 136.802 186.325 129.577 185.057C125.368 184.318 124.162 185.197 124.013 189.453C123.515 203.674 130.246 215.524 136.128 227.546C134.238 227.529 132.681 227.513 131.062 227.517C131 227.536 130.883 227.592 130.767 227.357C129.596 226.475 128.18 226.069 127.551 225.135C125.532 222.135 123.356 222.413 120.62 224.351C119.497 224.421 118.621 224.468 117.744 224.514ZM181.98 227.922C182.419 228.056 182.858 228.19 183.303 228.301C183.303 228.301 183.283 228.314 183.665 228.766C186.404 229.138 189.143 229.509 191.881 229.857C191.881 229.857 191.86 229.868 192.064 230.327C191.564 231.448 191.063 232.568 190.315 234.243C191.842 233.442 193.029 232.818 194.696 231.967C200.288 226.691 201.116 221.241 197.351 213.578C196.888 215.042 196.866 216.827 195.976 217.558C194.214 219.005 191.973 219.871 189.93 220.977C189.818 218.969 189.437 216.925 189.698 214.966C189.851 213.813 191.341 212.884 191.675 211.698C192.389 209.158 193.917 205.978 193.017 204.022C190.639 198.85 187.146 194.191 184.035 188.824C183.721 188.36 183.407 187.897 182.789 186.985C181.898 193.578 178.173 197.805 174.214 201.979C169.72 206.717 164.209 210.959 162.95 217.787C162.382 220.867 163.483 224.254 163.41 227.838C163.503 228.68 163.371 229.632 163.724 230.345C166.294 235.535 175.931 240.768 181.661 239.789C184.872 239.241 187.955 237.939 191.095 236.976C190.96 236.534 190.825 236.092 190.69 235.65C188.752 236.061 186.814 236.471 184.471 236.424C180.645 235.363 176.525 234.883 173.047 233.131C162.528 227.832 161.551 215.929 170.995 210.072C171.449 211.994 171.903 213.915 172.627 216.219C173.064 216.358 173.501 216.497 173.942 216.612C173.942 216.612 173.922 216.626 174.141 217.126C175.889 220.078 177.637 223.031 179.403 225.969C179.403 225.969 179.383 225.974 179.547 226.327C179.704 226.547 179.914 226.693 180.18 226.741C180.18 226.741 180.162 226.755 180.424 227.143C180.863 227.277 181.302 227.41 181.743 227.52C181.743 227.52 181.722 227.531 181.98 227.922Z" fill="#E9AD69"/>
<path d="M174.72 256.374C175.536 255.841 176.286 255.021 177.177 254.82C191.633 251.558 199.867 242.495 202.874 228.13C205.095 217.516 206.076 206.926 202.696 196.479C201.421 192.539 198.785 189.045 196.842 185.309C195.973 183.639 195.285 181.876 194.093 179.211C198.567 179.211 201.772 179.296 204.969 179.17C206.291 179.118 207.596 178.613 209.288 178.005C211.011 177.932 212.354 178.168 214.05 178.415C216.753 177.774 219.697 179.917 221.802 176.909C222.396 176.908 222.735 176.909 223.3 177.131C235.539 177.207 247.37 176.23 258.038 169.883C258.055 172.253 258.072 174.623 257.8 177.496C257.469 179.7 257.427 181.401 257.384 183.102C257.367 184.439 257.349 185.776 256.994 187.521C256.382 190.476 256.108 193.024 255.834 195.572C255.821 196.155 255.807 196.739 255.496 197.639C254.849 198.242 254.501 198.53 253.907 198.817C253.089 199.05 252.517 199.283 251.687 199.614C249.348 203.099 252.166 205.368 253.326 208.016C252.064 211.94 250.802 215.865 249.515 220.072C243.782 229.52 238.073 238.684 232.032 248.188C229.134 250.206 226.776 252.613 223.961 253.413C217.769 255.172 211.346 256.119 205.199 257.129C208.185 256.167 210.99 255.472 213.795 254.777C213.726 254.5 213.657 254.223 213.588 253.947C207.555 254.933 201.522 255.918 195.488 256.904C195.522 257.048 195.556 257.192 195.59 257.335C198.35 257.335 201.109 257.335 203.734 257.617C199.139 258.373 194.678 258.848 190.193 259.006C188.762 258.41 187.365 258.066 185.948 257.865C182.21 257.334 178.463 256.866 174.72 256.374ZM217.7 252.817C217.119 253.057 216.539 253.297 215.958 253.537C216.005 253.722 216.052 253.906 216.099 254.091C217.439 253.809 218.779 253.526 220.12 253.244C220.085 253.007 220.049 252.771 220.014 252.534C219.404 252.562 218.793 252.589 217.7 252.817Z" fill="#DE9B5A"/>
<path d="M66.3709 158.33C66.5029 158.091 66.6349 157.851 67.2174 157.478C68.2743 156.372 68.8806 155.399 69.487 154.426C69.6122 154.185 69.7375 153.944 70.3138 153.576C71.3118 152.638 71.8589 151.827 72.406 151.016C72.406 151.016 72.5498 151.162 72.7622 151.106C73.5742 149.971 74.1737 148.891 74.7732 147.812C74.7732 147.812 74.8611 147.522 75.1891 147.361C75.8232 146.697 76.1293 146.195 76.4354 145.693C76.4354 145.693 76.4514 145.708 76.7192 145.678C77.5981 144.655 78.2091 143.663 78.8201 142.67C78.9484 142.445 79.0766 142.22 79.6542 141.874C80.9551 140.463 81.8067 139.173 82.6584 137.882C82.6584 137.882 82.6903 137.917 82.8053 137.864C82.9851 137.745 83.1164 137.657 83.1031 137.618C83.0469 137.457 82.9476 137.31 82.864 137.157C82.8332 136.312 82.8024 135.467 82.9929 134.066C83.3562 130.857 83.4982 128.203 83.683 124.751C84.2287 127.09 84.5839 128.612 85.1467 130.161C85.4937 130.183 85.6331 130.178 85.7928 130.152C85.8131 130.13 85.7618 130.159 85.752 130.458C86.6608 135.371 89.6712 137.427 94.1257 136.014C96.9318 135.124 99.5283 133.574 102.2 132.606C98.9471 136.729 94.5753 138.259 89.7963 138.653C85.2396 139.029 83.5427 140.381 82.7296 144.997C82.7296 144.997 82.7192 144.935 82.4635 144.961C81.0816 146.858 79.9553 148.73 78.829 150.601C78.829 150.601 78.8446 150.874 78.521 151.027C77.7678 151.449 77.1652 151.616 76.9346 152.004C73.1617 158.349 69.2874 164.639 65.7326 171.105C59.7375 182.009 54.0967 193.11 47.9777 203.942C46.4092 206.719 43.6083 208.801 41.3668 210.997C41.3589 210.655 41.3577 210.518 41.4647 210.339C41.5 210.324 41.427 210.352 41.0392 210.379C39.6749 210.248 38.6254 210.117 36.9534 209.909C39.1476 206.887 40.3504 204.312 37.8124 201.605C37.5361 201.311 37.4278 200.449 37.6483 200.161C40.3978 196.576 43.2225 193.049 46.3264 189.466C47.6464 189.293 48.6681 189.16 50.4263 188.931C49.0273 187.641 48.3022 186.972 47.5884 186.008C48.6381 183.549 49.6766 181.383 50.9867 179.179C51.5922 178.376 51.926 177.613 52.2685 176.862C52.2771 176.874 52.2488 176.869 52.4297 176.787C52.7498 176.486 52.8889 176.266 53.0244 176.073C53.0207 176.099 52.9941 176.054 53.2804 176.043C54.16 174.995 54.7533 173.959 55.3568 172.955C55.367 172.987 55.3233 172.935 55.6022 172.915C56.2327 172.134 56.5843 171.373 56.9463 170.626C56.9568 170.639 56.9231 170.634 57.1197 170.532C57.44 170.166 57.5636 169.903 57.6695 169.498C57.6518 169.355 57.6903 169.07 57.9083 168.938C59.5023 167.328 60.8783 165.849 62.5198 164.288C63.9804 162.247 65.1757 160.289 66.3709 158.33Z" fill="#E9AD69"/>
<path d="M110.872 94.5521C111.168 94.5344 111.464 94.5166 112 94.731C112.311 95.2046 112.345 95.4511 112.444 95.9957C112.993 98.1306 113.897 99.9937 113.812 101.811C113.326 112.258 108.513 120.478 100.071 126.487C95.8587 129.485 91.3633 132.19 85.7618 130.159C85.7618 130.159 85.8131 130.13 85.8051 129.836C85.5688 128.2 85.3404 126.857 85.1807 125.222C86.1253 122.159 86.9992 119.388 87.8782 116.619C88.4435 114.838 89.0163 113.059 89.5858 111.278C89.8028 110.91 90.0199 110.542 90.6668 110.01C91.3625 109.278 91.6284 108.711 91.8943 108.144C92.1654 107.816 92.4366 107.487 93.1245 106.979C94.0835 106.006 94.6258 105.212 95.1681 104.418C95.1681 104.418 95.1688 104.41 95.4431 104.407C97.1193 102.884 98.5212 101.364 99.9231 99.8449C99.9231 99.8449 99.8829 99.7693 100.2 99.7897C103.969 98.0574 107.42 96.3048 110.872 94.5521ZM94.8769 117.585C99.0796 119.221 104.431 114.716 104.469 109.369C104.476 108.346 104.041 106.804 103.327 106.433C102.576 106.044 100.969 106.445 100.213 107.073C97.1058 109.655 94.6378 112.709 94.8769 117.585Z" fill="#CF8740"/>
<path d="M169.53 174.785C162.684 174.695 155.829 174.797 148.995 174.473C137.503 173.929 125.968 173.489 114.765 170.536C113.031 170.079 111.61 168.433 110.038 167.046C113.104 165.518 116.156 164.225 119.257 163.062C121.498 162.222 123.804 161.556 126.263 161.304C129.002 163.993 131.559 166.191 134.252 168.624C135.924 169.721 137.363 170.919 139.011 171.391C149.56 174.411 164.077 169.797 170.2 158.475C170.357 158.52 170.514 158.565 170.877 158.704C171.083 158.798 171.064 158.839 171.064 158.839C172.625 158.854 174.187 158.87 176.193 158.881C176.638 158.878 176.62 158.869 176.62 158.869C179.04 158.895 181.459 158.921 184.518 158.901C186.152 159.145 187.146 159.434 187.985 159.946C185.815 161.441 183.801 162.714 181.065 164.443C180.714 166.382 179.95 169.329 176.21 169.941C176.223 169.93 176.227 169.939 176.207 169.662C174.92 169.287 173.653 169.19 172.073 169.083C167.465 169.593 168.872 172.335 169.53 174.785Z" fill="#986029"/>
<path d="M339.746 155.711C339.462 155.741 339.178 155.77 338.444 155.901C337.146 156.231 336.299 156.46 335.158 156.634C333.993 156.887 333.122 157.194 331.924 157.495C329.039 157.758 326.486 158.189 323.922 158.271C313.273 158.61 303.632 155.472 294.819 149.335C294.306 148.735 293.804 148.384 293.301 148.033C283.782 139.961 279.138 129.299 276.981 117.325C276.619 115.317 276.369 113.289 276.13 110.768C276.136 109.943 276.08 109.62 276.025 109.297C275.869 108.399 275.714 107.501 275.75 106.12C276.254 105.217 276.567 104.797 276.887 104.723C277.416 108.631 277.774 112.227 278.494 115.749C280.721 126.651 285.432 136.23 293.995 143.63C300.088 148.894 307.744 150.762 315.208 152.634C326.42 155.444 336.688 152.299 346.166 146.123C349.966 143.647 352.585 140.537 351.848 135.511C351.954 135.422 352.164 135.241 352.424 135.315C354.399 138.019 356.718 139.9 359.664 141.001C359.386 141.618 359.109 142.234 358.636 143.185C358.24 143.693 358.149 143.913 358.169 144.179C357.176 145.14 356.183 146.102 354.854 147.285C354.293 147.625 354.173 147.811 354.156 148.065C354.156 148.065 354.113 148.043 353.908 148.094C353.525 148.35 353.347 148.556 353.169 148.761C352.783 148.991 352.396 149.22 351.701 149.649C351.166 149.954 351.026 150.129 350.972 150.373C350.561 150.552 350.151 150.732 349.388 151.103C348.844 151.483 348.653 151.672 348.462 151.861C348.462 151.861 348.105 151.904 347.797 152.038C347.248 152.266 347.093 152.437 347.024 152.686C347.024 152.686 347.067 152.724 346.795 152.711C345.594 153.192 344.666 153.686 343.737 154.181C343.737 154.181 343.425 154.187 343.043 154.302C341.69 154.848 340.718 155.28 339.746 155.711Z" fill="#D11F2B"/>
<path d="M176.197 169.951C179.951 169.329 180.714 166.382 181.065 164.443C183.801 162.714 185.815 161.441 188.185 159.935C189.252 159.542 189.965 159.38 190.678 159.219C192.132 159.143 193.585 159.067 195.455 159.457C196.333 160.329 196.936 161.172 197.232 161.076C200.016 160.169 202.232 161.26 204.683 162.458C206.924 163.553 207.447 161.631 207.488 159.771C207.839 159.703 208.189 159.634 208.789 159.946C209.564 161.444 210.092 162.56 210.64 163.855C210.662 164.033 210.744 164.382 210.708 164.644C210.655 165.257 210.638 165.609 210.378 166.085C208.735 168.987 207.335 171.764 205.61 174.585C204.197 174.716 203.108 174.803 202.02 174.889C193.119 174.992 184.218 175.095 175.007 174.868C175.196 173.01 175.696 171.48 176.197 169.951Z" fill="#8F5424"/>
<path d="M324.711 174.465C317.16 177.624 316.959 184.676 315.353 191.485C311.502 192.815 308.422 192.616 306.508 189.175C305.516 187.392 304.919 185.39 304.139 183.488C302.685 179.947 301.198 176.418 299.783 172.862C298.87 170.566 298.061 168.229 297.438 165.775C298.836 165.196 300.003 164.752 301.291 164.545C302.839 165.498 304.266 166.213 305.732 167.262C305.771 168.236 305.65 168.906 305.792 169.515C306.116 170.898 306.569 172.252 306.97 173.617C308.397 172.923 309.992 172.436 311.191 171.462C311.958 170.838 312.14 169.495 312.958 168.494C316.482 168.513 319.634 168.514 322.817 168.802C323.469 170.881 324.09 172.673 324.711 174.465Z" fill="#4D9BD6"/>
<path d="M236.364 161.596C236.65 161.593 236.936 161.59 237.577 161.852C242.508 163.974 248.296 162.771 252.62 168.142C241.081 172.287 229.77 173.359 218.374 173.482C220.505 169.191 222.598 165.177 225.033 161.187C229.039 161.339 232.702 161.467 236.364 161.596Z" fill="#986029"/>
<path d="M218.335 173.759C229.77 173.359 241.081 172.287 252.62 168.142C248.296 162.771 242.508 163.974 237.791 161.862C244.409 161.789 251.081 162.277 256.427 167.337C254.029 169.373 252.003 171.781 249.514 172.438C244.074 173.873 238.398 174.418 232.819 175.326C229.571 175.855 226.323 176.382 223.074 176.91C222.735 176.909 222.396 176.908 221.449 176.897C218.493 177.547 215.547 175.399 213.698 178.403C212.354 178.168 211.011 177.932 209.374 177.702C199.858 177.809 190.634 177.911 180.895 178.24C179.792 178.476 179.203 178.484 178.614 178.491C176.89 178.218 175.169 177.74 173.44 177.709C167.902 177.607 162.361 177.671 156.819 176.861C163.625 176.861 170.433 176.961 177.236 176.834C184.853 176.692 192.466 176.357 200.08 176.06C200.663 176.037 201.231 175.645 201.913 175.157C203.108 174.803 204.197 174.716 205.816 174.647C206.484 174.702 206.623 174.738 207.016 174.949C210.459 174.941 213.647 174.757 217.023 174.47C217.585 174.164 217.96 173.961 218.335 173.759Z" fill="#EFB57B"/>
<path d="M232.445 120.094C234.187 120.292 235.929 120.49 237.671 120.687C237.785 121.084 237.899 121.481 238.013 121.877C235.255 122.544 232.482 123.812 229.743 123.742C225.158 123.624 220.566 122.816 216.028 122.009C204.068 119.88 192.135 117.599 180.193 115.37C178.413 115.038 176.642 114.66 174.694 113.782C174.636 112.12 174.751 110.978 175.166 109.843C178.45 110.632 181.397 111.883 184.423 112.117C197.158 113.102 209.351 115.937 221.222 120.76C224.438 122.067 228.688 124.292 232.415 120.645C232.427 120.462 232.445 120.094 232.445 120.094Z" fill="#D0222E"/>
<path d="M276.881 104.377C276.567 104.797 276.254 105.217 275.796 105.778C275.547 105.096 275.443 104.273 275.674 103.141C276.578 102.288 277.148 101.742 277.718 101.197C278.762 103.95 279.86 106.685 280.84 109.461C284.484 119.778 290.266 128.724 298.523 135.883C312.217 147.756 332.241 148.199 346.771 137.172C347.086 137.14 347.217 137.268 347.138 137.515C345.76 139.354 344.461 140.945 342.931 142.564C342.34 142.851 341.981 143.11 341.623 143.37C341.625 143.371 341.624 143.366 341.335 143.391C312.664 153.043 294.307 142.204 281.576 115.839C280.968 113.523 280.514 111.449 279.71 109.521C278.961 107.726 277.839 106.086 276.881 104.377Z" fill="#D3363E"/>
<path d="M41.3735 211.202C43.6083 208.801 46.4093 206.719 47.9777 203.942C54.0968 193.11 59.7375 182.009 65.7326 171.105C69.2874 164.639 73.1617 158.349 76.9346 152.004C77.1652 151.616 77.7678 151.449 78.4711 151.154C78.4973 152.236 78.2497 153.343 77.6802 154.788C75.8336 157.566 73.9143 159.86 72.9266 162.501C72.296 164.187 73.0439 166.389 73.1737 168.359C72.1748 169.38 71.3524 170.753 70.1445 171.359C66.194 173.339 65.3067 176.731 65.0785 180.857C64.764 180.679 64.6614 180.307 64.2719 178.892C62.3833 182.849 60.8361 186.091 59.2982 189.433C59.3076 189.532 59.3294 189.731 59.1197 189.751C58.7569 190.149 58.6038 190.528 58.3124 191.065C58.0185 191.61 57.8629 191.997 57.5291 192.469C57.2388 192.782 57.1267 193.009 56.9381 193.359C56.8617 193.481 56.8216 193.767 56.6121 193.907C55.8151 195.137 55.2276 196.225 54.6402 197.313C51.1302 202.386 47.6877 207.508 44.0821 212.512C42.2427 215.065 39.5876 215.818 36.438 214.749C38.0256 213.383 39.6995 212.293 41.3735 211.202Z" fill="#D08957"/>
<path d="M299.433 211.935C296.026 210.918 298.053 208.812 298.665 207.092C299.825 207.525 300.771 207.901 301.159 208.055C300.863 205.927 300.576 203.867 300.288 201.807C300.288 201.807 300.29 201.81 300.548 201.664C301.121 200.412 301.435 199.304 301.748 198.196C301.748 198.196 301.606 198.167 301.842 197.956C302.785 196.518 303.492 195.292 304.515 194.046C305.637 194.209 306.443 194.392 307.29 194.827C310.708 196.852 312.768 199.416 310.44 203.084C308.953 205.427 306.555 207.193 304.646 209.136C306.735 209.266 309.42 209.434 312.104 209.602C312.235 210.674 312.366 211.747 312.519 213.002C310.791 212.882 309.34 212.78 307.316 212.683C304.306 212.437 301.87 212.186 299.433 211.935Z" fill="#C82B71"/>
<path d="M359.906 140.901C356.718 139.9 354.399 138.019 352.326 135.079C351.653 134.15 351.336 133.533 351.02 132.916C352.004 132.374 352.95 131.452 353.978 131.35C362.471 130.509 365.832 123.72 369.565 117.663C370.863 115.556 372.149 112.289 368.597 110.187C368.378 110.057 368.747 108.935 368.843 108.275C369.667 108.427 371.118 108.409 371.214 108.761C371.838 111.043 373.062 113.704 372.401 115.676C371.158 119.385 368.863 122.766 366.825 126.175C365.638 128.16 364.099 129.936 362.495 132.156C362.212 132.746 362.153 132.988 362.094 133.229C361.956 134.181 361.817 135.133 361.51 136.535C361.321 137.292 361.302 137.597 361.282 137.903C360.904 138.869 360.527 139.835 359.906 140.901Z" fill="#3C6B3C"/>
<path d="M170.388 158.171C164.077 169.797 149.56 174.411 139.011 171.391C137.363 170.919 135.924 169.721 134.404 168.393C135.121 166.759 135.823 165.59 136.738 164.575C138.667 167.936 141.529 168.803 144.963 169.141C154.08 170.037 160.887 165.853 166.63 159.511C168.862 157.046 171.126 154.24 170.054 150.047C170.603 146.803 171.152 143.886 171.701 140.97C171.978 143.668 172.626 146.393 172.43 149.056C172.213 152.022 171.227 154.932 170.388 158.171Z" fill="#698333"/>
<path d="M82.9719 144.88C83.5429 140.381 85.2398 139.029 89.7965 138.653C94.5755 138.259 98.9473 136.729 102.31 132.445C102.809 131.87 103.179 131.743 103.708 131.755C104.081 131.48 104.295 131.067 104.638 130.455C105.909 129.168 107.051 128.079 108.497 126.988C109.451 125.947 110.1 124.91 110.759 123.881C110.768 123.89 110.748 123.87 110.952 123.89C111.291 123.899 111.427 123.889 111.772 123.715C116.804 116.452 118.322 108.414 118.667 100.044C121.355 105.913 120.46 111.89 117.951 117.295C112.082 129.938 103.44 139.479 88.429 141.193C86.5788 141.404 84.947 143.526 82.9719 144.88Z" fill="#D08957"/>
<path d="M171.68 140.696C171.152 143.886 170.603 146.803 169.813 150.169C168.834 151.807 167.891 152.916 167.396 154.198C165.64 158.75 162.596 162.176 158.2 164.097C155.198 165.408 151.922 166.167 148.702 166.875C147.064 167.235 145.28 166.938 142.941 166.938C145.513 165.949 147.267 165.275 149.324 164.545C152.572 163.14 155.517 161.791 158.673 160.421C159.432 159.82 159.98 159.24 160.527 158.66C166.618 152.733 168.283 145.176 168.47 137.084C168.506 135.529 168.439 133.971 168.359 132.059C168.74 131.109 169.18 130.515 169.818 130.027C170.563 133.563 171.111 136.992 171.68 140.696Z" fill="#7CA649"/>
<path d="M54.8434 197.567C55.2278 196.225 55.8152 195.137 56.6596 194.271C57.7201 198.52 58.4267 202.569 59.3554 206.567C60.2142 210.264 62.0979 213.682 60.9758 217.8C60.3447 220.117 60.8404 222.739 60.8285 225.224C60.8285 225.224 60.9074 225.487 60.9358 225.816C61.0589 226.398 61.2222 226.592 61.4543 226.73C61.1503 228.447 60.8464 230.164 60.3035 231.859C59.9736 231.619 59.8826 231.401 59.7916 231.183C59.694 231.251 59.5964 231.319 59.4987 231.387C59.6951 231.662 59.8914 231.937 60.0878 232.213C60.0878 232.213 60.0583 232.583 59.8453 232.869C59.0977 233.325 58.5631 233.495 58.0285 233.665C58.2655 230.602 58.5732 227.542 58.6991 224.475C58.7401 223.474 58.3076 222.454 58.0916 221.442C57.1959 221.706 56.1782 221.786 55.4316 222.276C54.1642 223.11 53.1319 224.296 51.8761 225.152C51.0752 225.698 50.0499 225.915 49.1252 226.279C49.372 225.321 49.6187 224.363 49.9723 223.166C51.3669 221.482 52.6935 220.069 53.9359 218.586C59.6055 211.818 59.6 211.81 56.869 203.326C56.2767 201.485 55.6548 199.655 54.8434 197.567Z" fill="#5192BD"/>
<path d="M57.6904 169.07C57.6904 169.07 57.6519 169.355 57.4954 169.626C57.2003 170.143 57.0617 170.389 56.9232 170.634C56.9232 170.634 56.9569 170.639 56.7346 170.75C56.1161 171.551 55.7197 172.243 55.3234 172.935C55.3234 172.935 55.3671 172.987 55.1275 173.064C54.2566 174.112 53.6254 175.083 52.9942 176.054C52.9942 176.054 53.0208 176.099 52.8371 176.146C52.5185 176.418 52.3837 176.644 52.2489 176.869C52.2489 176.869 52.2772 176.874 52.0769 176.961C51.5466 177.325 51.2167 177.602 50.7378 177.582C50.253 175.348 49.9172 173.411 49.6653 171.958C48.8584 173.383 47.8658 175.136 46.6111 176.782C44.4217 175.457 42.4943 174.237 40.5669 173.017C43.2563 168.378 47.5935 165.924 52.7701 164.331C54.6511 166.062 56.1708 167.566 57.6904 169.07Z" fill="#C82B71"/>
<path d="M151.911 96.3485C152.174 100.495 149.199 100.987 146.286 100.882C140.37 100.671 136.152 97.6092 133.491 92.0425C135.158 88.5399 138.328 88.8994 141.269 90.004C144.016 91.0356 146.494 92.7797 149.487 94.4945C150.559 95.3021 151.235 95.8253 151.911 96.3485ZM145.092 96.1507C144.628 95.1547 144.165 94.1588 143.781 93.3336C142.472 93.7121 141.518 93.8378 140.73 94.2681C140.189 94.5634 139.88 95.2822 139.467 95.8117C141.297 96.8161 143.116 97.8393 144.986 98.7626C145.068 98.8033 145.677 97.9623 145.878 97.4663C145.936 97.3246 145.421 96.9514 145.092 96.1507Z" fill="#7CA649"/>
<path d="M160 81.0072C159.836 81.0063 159.672 81.0055 159.124 80.7406C158.144 80.3799 157.547 80.2833 156.95 80.1866C156.95 80.1866 156.858 80.2488 156.659 80.0167C155.805 79.6773 155.151 79.5699 154.497 79.4626C139.976 76.0217 129.555 60.5031 132.079 45.9545C132.332 44.4958 133.138 43.133 134.092 41.7684C135.173 42.1368 135.851 42.4626 136.374 43.0273C133.506 45.2888 131.877 52.3992 134.022 55.7186C135.148 57.4621 133.627 61.6805 138.061 61.1182C138.313 62.5032 138.564 63.591 138.847 64.951C142.216 68.751 145.114 72.9187 149.032 75.5974C151.99 77.6197 156.253 77.7377 160.109 78.6346C160.606 78.3818 160.93 78.1976 161.254 78.0133C162.538 79.1637 163.821 80.3141 165.105 81.4645C164.858 81.837 164.612 82.2096 164.365 82.5821C163.547 82.3024 162.729 82.0227 161.507 81.4693C160.736 81.1328 160.368 81.07 160 81.0072Z" fill="#C93232"/>
<path d="M236.173 66.1826C237.529 65.3784 238.817 64.3665 240.28 63.8944C240.731 63.749 242.377 65.3278 242.25 65.6919C241.401 68.133 240.676 70.8383 239.072 72.758C231.7 81.5797 222.652 88.3839 212.282 93.8724C210.119 94.497 208.135 94.9311 205.821 95.2224C205.999 94.5246 206.507 93.9697 207.321 93.5286C220.483 89.1809 229.878 80.3474 237.877 69.7459C239.622 67.4335 237.648 66.9368 236.173 66.1826Z" fill="#6A8C43"/>
<path d="M61.0737 225.088C60.8404 222.739 60.3447 220.117 60.9758 217.8C62.0979 213.682 60.2142 210.264 59.3554 206.567C58.4267 202.569 57.7201 198.52 56.8692 194.13C56.8218 193.767 56.8618 193.481 57.1102 193.27C57.5687 192.882 57.685 192.657 57.7074 192.383C57.863 191.997 58.0186 191.61 58.5256 191.073C59.0189 190.921 59.1607 190.919 59.5949 190.952C60.7271 193.375 61.9728 195.704 62.322 198.16C63.0381 203.199 63.2736 208.305 63.7069 213.384C63.5779 213.892 63.4488 214.399 63.0093 215.174C62.6989 215.442 62.4887 215.564 62.4887 215.564C62.6306 216.893 62.7726 218.223 62.9025 219.838C62.3666 221.733 61.8427 223.342 61.0737 225.088Z" fill="#4D9BD6"/>
<path d="M307.249 194.575C306.443 194.392 305.637 194.209 304.396 193.858C303.547 193.554 303.134 193.419 302.72 193.283C302.256 191.062 301.479 188.853 301.391 186.618C301.181 181.313 299.55 176.591 296.726 172.131C295.877 170.79 295.797 168.962 295.664 166.987C296.377 166.382 296.791 166.146 297.205 165.91C298.061 168.229 298.87 170.566 299.783 172.862C301.198 176.419 302.685 179.947 304.138 183.488C304.919 185.39 305.516 187.392 306.508 189.175C308.422 192.616 311.501 192.815 315.222 191.735C315.273 192.66 314.992 193.59 314.177 194.679C311.513 194.75 309.381 194.662 307.249 194.575Z" fill="#398BBF"/>
<path d="M194.479 55.3051C200.499 49.7306 207.904 49.8594 215.258 50.1714C215.956 50.201 216.946 52.2518 217.099 53.4533C217.225 54.4426 216.311 55.5642 215.323 56.7546C213.905 56.6067 213.022 56.3313 212.226 55.8123C212.392 55.3489 212.494 55.1335 212.54 54.9068C212.554 54.8349 212.383 54.6462 212.357 54.6569C209.161 55.9739 205.179 51.1371 202.337 55.9436C202.064 56.4045 200.626 56.1771 199.715 55.9819C199.332 55.152 198.963 54.6095 198.594 54.0669C197.945 54.7953 197.274 55.5056 196.652 56.2564C195.844 57.2322 195.075 58.2403 194.241 58.9608C194.133 57.7804 194.073 56.8737 194.013 55.967C194.157 55.7841 194.3 55.6003 194.479 55.3051Z" fill="#C93232"/>
<path d="M41.367 210.997C39.6997 212.293 38.0258 213.383 36.1836 214.656C31.7442 212.89 31.9324 209.015 33.3456 205.93C35.957 200.228 39.4606 194.933 43.1407 189.334C44.4686 189.302 45.2484 189.404 46.0282 189.507C43.2227 193.049 40.398 196.576 37.6485 200.161C37.428 200.449 37.5363 201.311 37.8126 201.605C40.3506 204.312 39.1478 206.887 36.9536 209.909C38.6256 210.117 39.6751 210.248 41.04 210.38C41.3553 210.381 41.3567 210.382 41.3567 210.382C41.3579 210.518 41.3591 210.655 41.367 210.997Z" fill="#EFB57B"/>
<path d="M218.374 173.482C217.96 173.961 217.585 174.164 216.698 174.431C215.098 174.451 214.01 174.405 212.805 174.163C212.512 172.857 212.338 171.748 212.343 170.508C212.153 169.94 211.785 169.503 211.412 168.78C211.425 167.922 211.443 167.351 211.743 166.769C215.199 163.987 218.375 161.215 221.821 158.328C222.66 158.052 223.228 157.891 223.796 157.73C223.821 157.913 223.847 158.095 223.873 158.786C224.067 159.694 224.261 160.093 224.519 160.658C224.585 160.823 224.69 161.162 224.69 161.162C222.598 165.177 220.505 169.191 218.374 173.482ZM219.265 167.333C219.455 166.569 219.645 165.805 219.835 165.041C219.506 164.889 219.176 164.737 218.847 164.585C217.193 167.44 215.539 170.295 213.46 173.884C217.771 173.104 217.496 169.714 219.265 167.333Z" fill="#EB1D27"/>
<path d="M299.604 212.166C301.87 212.186 304.306 212.436 307.062 212.704C304.753 218.661 309.87 221.925 312.151 226.465C312.101 227.18 311.951 227.633 311.713 228.356C310.266 226.711 308.989 225.258 307.36 223.541C306.984 223.902 306.96 224.526 306.936 225.15C307.103 227.019 307.269 228.889 307.197 231.106C306.629 231.427 306.298 231.401 305.967 231.376C305.574 229.51 305.181 227.645 304.695 225.526C302.992 220.982 301.384 216.69 299.604 212.166Z" fill="#E0766A"/>
<path d="M46.3264 189.466C45.2482 189.404 44.4685 189.302 43.3971 189.236C36.1175 185.706 35.594 184.777 37.7027 178.876C39.2211 179.388 40.312 180.098 41.4824 180.635C42.7264 181.206 44.0457 181.614 45.2448 182.399C45.964 183.905 46.7706 185.104 47.5772 186.303C48.3023 186.972 49.0273 187.641 50.4264 188.931C48.6681 189.16 47.6465 189.293 46.3264 189.466Z" fill="#C82B71"/>
<path d="M251.945 199.517C252.517 199.283 253.089 199.05 253.933 198.98C254.205 199.142 254.255 199.469 254.087 199.596C254.057 200.062 254.194 200.401 254.331 200.739C254.568 200.369 254.805 199.999 255.238 199.59C255.567 199.53 255.699 199.509 255.831 199.487C259.054 202.481 262.277 205.476 265.42 208.877C265.286 209.626 265.232 209.969 265.177 210.311C265.177 210.311 265.209 210.35 264.853 210.359C260.722 211.303 259.201 209.024 258.415 205.752C252.69 207.157 253.03 202.646 251.945 199.517Z" fill="#D3363E"/>
<path d="M63.8414 213.134C63.2735 208.305 63.038 203.199 62.3219 198.16C61.9728 195.704 60.727 193.375 59.5958 190.753C59.3128 190.256 59.3211 189.993 59.3295 189.731C59.3295 189.731 59.3077 189.532 59.5789 189.446C61.2355 189.07 62.6209 188.782 64.0063 188.493C64.7022 195.167 65.5412 201.832 65.9781 208.523C66.0698 209.927 64.682 211.428 63.8414 213.134Z" fill="#398BBF"/>
<path d="M297.437 165.775C296.791 166.146 296.377 166.382 295.745 166.731C294.709 163.479 293.618 160.15 293.163 156.737C292.815 154.133 293.274 151.422 293.338 148.396C293.804 148.384 294.306 148.735 294.818 149.658C295.241 152.084 295.328 154.096 296.138 155.756C297.585 158.719 299.469 161.469 301.17 164.308C300.003 164.752 298.836 165.196 297.437 165.775Z" fill="#E0766A"/>
<path d="M53.2994 157.914C52.1752 154.593 55.1081 150.005 58.6535 149.539C61.8818 149.115 63.9203 151.851 62.4689 154.891C61.9084 156.065 60.7435 156.951 59.4535 157.811C57.0232 155.28 55.1905 157.239 53.2994 157.914Z" fill="#573158"/>
<path d="M53.1757 158.194C55.1903 157.239 57.023 155.28 59.1978 157.897C58.8296 159.523 58.3163 160.904 57.6521 162.691C59.1262 162.853 60.5053 163.004 62.1198 163.308C62.3216 163.763 62.288 164.067 62.2544 164.371C60.8783 165.849 59.5023 167.328 57.9083 168.938C56.1707 167.566 54.651 166.062 53.064 164.268C56.1186 162.175 54.0303 160.319 53.1757 158.194Z" fill="#E0766A"/>
<path d="M138.815 64.6788C138.564 63.591 138.313 62.5032 138.067 60.7481C138.082 54.8605 138.09 49.6401 138.279 44.4178C138.46 44.4157 138.82 44.4265 138.822 44.7413C139.082 46.4152 139.341 47.7744 139.567 49.431C138.033 54.5201 140.628 58.4579 142.473 62.4257C143.304 64.2127 145.258 65.4787 146.702 66.981C146.702 66.981 146.652 67.0035 146.736 67.1754C147.057 67.4936 147.296 67.6398 147.534 67.786C147.79 67.8013 147.985 67.9183 148.237 68.5035C148.582 69.026 148.808 69.1819 149.034 69.3377C149.034 69.3377 148.987 69.348 149.068 69.5141C149.375 69.8225 149.601 69.9649 149.828 70.1072C149.828 70.1072 149.771 70.1131 149.788 70.3627C150.838 72.0034 151.87 73.3945 152.626 74.764C146.466 71.4916 142.124 66.7613 138.815 60.0017C138.815 62.1321 138.815 63.4055 138.815 64.6788Z" fill="#F83344"/>
<path d="M307.29 194.827C309.381 194.662 311.513 194.75 313.973 194.888C313.656 199.609 313.011 204.279 312.234 209.275C309.419 209.434 306.735 209.266 304.646 209.136C306.555 207.193 308.953 205.427 310.44 203.084C312.768 199.416 310.708 196.852 307.29 194.827Z" fill="#AB206C"/>
<path d="M160.182 158.599C159.98 159.24 159.432 159.82 158.41 160.227C150.512 160.684 143.087 161.314 135.389 162.054C132.88 162.085 130.643 162.006 128.407 161.926C129.478 161.443 130.522 160.617 131.624 160.531C141.022 159.79 150.431 159.184 160.182 158.599Z" fill="#BF7936"/>
<path d="M324.922 174.351C324.09 172.673 323.469 170.881 323.114 168.728C329.378 167.224 330.113 161.791 332.251 157.501C333.122 157.194 333.993 156.887 335.085 156.781C335.307 156.983 335.18 157.286 335.18 157.286C334.432 157.837 333.684 158.389 332.743 159.37C332.513 160.288 332.477 160.776 332.44 161.264C332.353 161.824 332.266 162.384 332.054 163.328C331.759 163.902 331.731 164.111 331.843 164.34C331.706 164.899 331.569 165.458 331.283 166.415C330.96 167.009 330.909 167.232 330.983 167.484C330.88 167.809 330.776 168.134 330.517 168.819C330.187 169.362 330.119 169.578 330.158 169.828C328.483 171.298 326.809 172.768 324.922 174.351Z" fill="#E0766A"/>
<path d="M180.17 105.309C192.706 106.068 204.801 108.834 216.646 113.564C216.768 113.838 216.658 113.958 216.375 113.898C214.517 113.308 212.942 112.778 211.041 112.236C209.2 111.945 207.68 111.678 206.166 111.383C199.6 110.102 193.036 108.812 186.2 107.413C184.015 106.856 182.1 106.411 180.182 105.802C180.178 105.638 180.17 105.309 180.17 105.309Z" fill="#D3363E"/>
<path d="M223.3 177.131C226.323 176.382 229.571 175.855 232.819 175.326C238.398 174.418 244.074 173.873 249.514 172.438C252.003 171.781 254.029 169.373 256.489 167.604C257.193 168.085 257.675 168.72 258.097 169.619C247.37 176.23 235.539 177.207 223.3 177.131Z" fill="#E9AD69"/>
<path d="M89.3343 111.358C89.0164 113.059 88.4437 114.838 87.8783 116.619C86.9993 119.388 86.1254 122.159 85.1533 125.549C85.0179 127.489 84.9786 128.812 84.9392 130.134C84.584 128.612 84.2288 127.09 83.6831 124.751C83.4983 128.204 83.3563 130.857 83.0127 133.749C80.8902 129.302 81.9436 124.778 83.914 120.482C85.3557 117.338 87.3402 114.443 89.3343 111.358Z" fill="#EFB57B"/>
<path d="M45.3323 182.093C44.0458 181.614 42.7265 181.206 41.4825 180.635C40.3121 180.098 39.2212 179.388 37.8748 178.613C38.4825 176.747 39.3108 175.021 40.353 173.156C42.4943 174.237 44.4217 175.457 46.6038 177.047C46.8551 177.942 46.8517 178.467 46.6481 179.173C46.0761 180.267 45.7042 181.18 45.3323 182.093Z" fill="#D3363E"/>
<path d="M251.687 199.614C253.03 202.646 252.69 207.157 258.415 205.752C259.201 209.024 260.722 211.303 264.834 210.375C263.425 210.808 261.523 211.879 259.973 211.503C257.821 210.981 255.933 209.374 253.629 208.124C252.166 205.368 249.348 203.099 251.687 199.614Z" fill="#C93232"/>
<path d="M118.673 99.7959C118.322 108.414 116.804 116.452 111.75 123.481C111.491 123.258 111.462 123.104 111.462 122.667C113.261 117.569 115.402 112.852 116.707 107.915C118.334 101.76 116.691 97.987 112.342 95.7025C112.345 95.451 112.311 95.2045 112.218 94.7784C115.895 94.2358 117.159 97.0599 118.673 99.7959Z" fill="#EFB57B"/>
<path d="M174.865 109.837C174.751 110.978 174.636 112.12 174.453 113.597C168.243 113.142 162.101 112.35 155.959 111.558C155.934 111.465 155.91 111.372 155.885 111.278C158.613 111.278 161.348 111.395 164.068 111.248C167.326 111.073 170.484 110.525 172.205 106.812C172.967 106.848 173.232 106.856 173.586 107.126C174.073 108.205 174.469 109.021 174.865 109.837Z" fill="#3C6B3C"/>
<path d="M73.4612 168.311C73.0439 166.389 72.296 164.187 72.9267 162.501C73.9143 159.86 75.8337 157.566 77.6172 155.073C77.7402 159.82 77.0217 164.438 73.4612 168.311Z" fill="#AB206C"/>
<path d="M230.016 101.325C231.285 104.99 230.568 107.419 227.646 108.214C226.318 108.575 224.769 108.124 223.32 108.041C223.83 105.946 219.815 104.5 222.861 102.217C224.036 103.281 224.816 104.226 226.776 106.602C227.984 104.635 229 102.98 230.016 101.325Z" fill="#232323"/>
<path d="M64.221 188.242C62.621 188.782 61.2356 189.07 59.5696 189.346C60.8362 186.091 62.3835 182.849 64.2721 178.892C64.6616 180.307 64.7641 180.679 65.015 181.169C64.9208 183.521 64.6782 185.756 64.221 188.242Z" fill="#AB206C"/>
<path d="M146.627 66.7191C145.258 65.4787 143.304 64.2128 142.473 62.4257C140.628 58.4579 138.033 54.5201 139.579 49.047C139.738 46.805 139.853 45.2445 139.968 43.6841C140.174 44.4047 140.625 45.1526 140.548 45.8417C139.685 53.5597 142.068 60.3075 146.627 66.7191Z" fill="#D3363E"/>
<path d="M128.131 161.661C130.643 162.006 132.88 162.085 135.56 162.198C136.187 162.461 136.37 162.692 136.55 163.172C136.54 163.755 136.533 164.088 136.525 164.421C135.823 165.59 135.121 166.759 134.267 168.158C131.559 166.191 129.002 163.993 126.396 161.527C126.85 161.304 127.353 161.35 128.131 161.661Z" fill="#3C6B3C"/>
<path d="M223.837 157.478C223.228 157.891 222.66 158.052 221.525 158.248C219.599 157.952 218.241 157.621 216.853 157.057C216.771 156.678 216.718 156.531 216.664 156.384C217.978 154.579 219.293 152.775 220.828 150.667C221.933 153.045 222.905 155.135 223.837 157.478Z" fill="#3C6B3C"/>
<path d="M219.9 28.6587C221.502 28.6233 222.96 28.4444 224.078 28.9765C224.499 29.1768 224.509 31.2509 224.022 32.0595C223.542 32.8561 222.235 33.3794 221.215 33.5425C220.613 33.6386 219.361 32.88 219.28 32.3682C219.101 31.2239 219.472 29.9933 219.9 28.6587Z" fill="#373737"/>
<path d="M136.528 42.7883C135.851 42.4625 135.174 42.1368 134.335 41.6407C135.662 38.7334 137.15 35.9964 138.489 33.5323C138.865 36.1383 139.307 39.1998 139.476 42.5836C138.809 42.9455 138.417 42.9851 137.784 42.9415C137.204 42.835 136.866 42.8116 136.528 42.7883Z" fill="#3C6B3C"/>
<path d="M207.16 159.649C207.447 161.631 206.924 163.553 204.683 162.458C202.232 161.26 200.016 160.169 197.232 161.076C196.936 161.172 196.332 160.329 195.801 159.735C196.561 159.367 197.391 159.187 198.886 158.945C200.588 159.135 201.624 159.388 202.661 159.64C204.052 159.602 205.442 159.564 207.16 159.649Z" fill="#986029"/>
<path d="M229.901 101.082C229 102.98 227.984 104.635 226.776 106.602C224.816 104.226 224.037 103.281 223.118 102.089C225.02 99.9562 227.244 99.324 229.901 101.082Z" fill="#373737"/>
<path d="M125.651 121.715C126.953 120.689 128.165 119.901 129.475 119.339C129.599 119.286 130.749 120.691 130.687 121.351C130.594 122.345 129.853 123.279 129.387 124.239C128.121 123.497 126.854 122.756 125.651 121.715Z" fill="#373737"/>
<path d="M163.781 63.6932C162.725 62.7041 161.949 61.6428 161.173 60.5816C162.621 59.9322 164.07 59.2829 165.518 58.6335C165.905 59.0798 166.292 59.526 166.679 59.9723C165.806 61.1885 164.933 62.4048 163.781 63.6932Z" fill="#373737"/>
<path d="M152.903 74.7855C151.87 73.3944 150.837 72.0033 149.803 70.3383C153.511 72.5842 157.222 75.1042 161.093 77.8187C160.93 78.1975 160.606 78.3817 159.942 78.4313C158.926 78.1532 158.25 78.0097 157.53 77.6027C156.734 77.0074 155.982 76.6758 155.228 76.3531C155.227 76.3622 155.241 76.3478 155.199 76.0796C154.403 75.469 153.648 75.1267 152.89 74.7904C152.886 74.7963 152.903 74.7855 152.903 74.7855Z" fill="#D3363E"/>
<path d="M232.181 119.981C232.445 120.094 232.427 120.462 232.118 120.596C226.759 118.473 221.708 116.215 216.658 113.958C216.658 113.958 216.768 113.838 216.823 113.778C221.891 115.768 226.903 117.818 232.181 119.981Z" fill="#D3363E"/>
<path d="M110.567 94.4435C107.421 96.3047 103.969 98.0574 100.235 99.8149C102.619 96.5472 105.963 94.5466 110.567 94.4435Z" fill="#EFB57B"/>
<path d="M225.033 161.187C224.69 161.162 224.585 160.823 224.59 160.452C224.649 159.946 224.702 159.811 224.755 159.676C228.494 160.146 232.233 160.615 236.168 161.34C232.701 161.467 229.039 161.339 225.033 161.187Z" fill="#EFB57B"/>
<path d="M210.619 163.677C210.092 162.56 209.564 161.444 209.04 160.054C210.193 159.737 211.343 159.693 212.748 159.944C213.004 160.24 213.041 160.577 212.813 160.7C212.208 161.763 211.831 162.703 211.432 163.655C211.41 163.668 211.378 163.707 211.188 163.69C210.999 163.673 210.619 163.677 210.619 163.677Z" fill="#986029"/>
<path d="M256.042 195.358C256.108 193.024 256.382 190.476 256.932 187.85C256.888 190.229 256.569 192.686 256.042 195.358Z" fill="#E9AD69"/>
<path d="M300.076 201.993C300.576 203.867 300.863 205.927 301.159 208.055C300.771 207.901 299.825 207.525 298.827 206.895C299.137 205.153 299.501 203.666 300.076 201.993Z" fill="#AB206C"/>
<path d="M277.701 100.921C277.148 101.742 276.578 102.288 275.735 102.833C275.462 101.453 275.462 100.074 275.462 97.4562C276.597 99.0848 277.141 99.8647 277.701 100.921Z" fill="#D11F2B"/>
<path d="M79.0691 150.48C79.9554 148.73 81.0817 146.858 82.4906 144.977C81.6185 146.765 80.4638 148.562 79.0691 150.48Z" fill="#D08957"/>
<path d="M99.6549 99.8349C98.5214 101.364 97.1195 102.884 95.4473 104.406C96.5802 102.881 97.9834 101.353 99.6549 99.8349Z" fill="#EFB57B"/>
<path d="M62.52 164.288C62.2882 164.067 62.3218 163.763 62.38 163.232C63.5649 161.496 64.7251 159.988 66.1282 158.405C65.1759 160.289 63.9806 162.247 62.52 164.288Z" fill="#EFB57B"/>
<path d="M257.583 182.876C257.427 181.401 257.469 179.7 257.736 177.846C257.901 179.346 257.841 180.998 257.583 182.876Z" fill="#E9AD69"/>
<path d="M173.496 106.864C173.232 106.856 172.968 106.848 172.508 106.789C174.742 106.224 177.17 105.709 179.884 105.252C180.17 105.309 180.178 105.637 179.843 105.805C177.504 106.269 175.5 106.567 173.496 106.864Z" fill="#D0222E"/>
<path d="M193.719 56.0848C194.073 56.8737 194.133 57.7804 194.2 59.1592C194.383 59.8365 194.559 60.0418 194.735 60.247C194.735 60.247 194.467 60.5196 194.332 60.6547C193.939 59.2607 193.682 57.7317 193.719 56.0848Z" fill="#F8F8F8"/>
<path d="M82.4355 138.007C81.8069 139.173 80.9553 140.463 79.824 141.774C80.4337 140.574 81.323 139.353 82.4355 138.007Z" fill="#EFB57B"/>
<path d="M302.684 193.58C303.134 193.419 303.547 193.554 304.081 193.878C303.492 195.292 302.785 196.518 301.841 197.883C301.952 196.641 302.299 195.259 302.684 193.58Z" fill="#AB206C"/>
<path d="M202.525 159.473C201.624 159.388 200.588 159.135 199.529 158.887C200.467 159.029 201.428 159.167 202.525 159.473Z" fill="#C93232"/>
<path d="M350.795 133.063C351.336 133.533 351.653 134.15 352.067 135.004C352.164 135.241 351.954 135.422 351.55 135.503C350.359 135.591 349.57 135.598 348.765 135.457C348.748 135.31 348.686 135.021 348.686 135.021C349.314 134.418 349.943 133.814 350.795 133.063Z" fill="#D11F2B"/>
<path d="M74.5359 147.917C74.1737 148.891 73.5742 149.971 72.688 151.036C73.0337 150.021 73.6662 149.022 74.5359 147.917Z" fill="#EFB57B"/>
<path d="M69.2491 154.5C68.8808 155.399 68.2745 156.372 67.3987 157.375C67.7565 156.462 68.3837 155.519 69.2491 154.5Z" fill="#EFB57B"/>
<path d="M78.5887 142.765C78.2093 143.663 77.5983 144.655 76.7107 145.67C77.0751 144.748 77.7161 143.804 78.5887 142.765Z" fill="#EFB57B"/>
<path d="M72.1617 151.076C71.859 151.827 71.312 152.638 70.4937 153.474C70.7874 152.712 71.3523 151.924 72.1617 151.076Z" fill="#EFB57B"/>
<path d="M139.96 43.6673C139.853 45.2445 139.738 46.8049 139.611 48.7494C139.341 47.7743 139.082 46.4152 138.954 44.5473C139.365 43.9006 139.645 43.7627 139.924 43.6248C139.924 43.6248 139.952 43.6506 139.96 43.6673Z" fill="#EB1D27"/>
<path d="M344.049 154.213C344.666 153.686 345.594 153.192 346.789 152.682C346.156 153.194 345.258 153.72 344.049 154.213Z" fill="#F1F0F1"/>
<path d="M94.9293 104.478C94.626 105.212 94.0837 106.006 93.2678 106.82C93.5596 106.072 94.1249 105.304 94.9293 104.478Z" fill="#EFB57B"/>
<path d="M301.512 198.365C301.435 199.304 301.121 200.412 300.547 201.664C300.617 200.718 300.947 199.626 301.512 198.365Z" fill="#AB206C"/>
<path d="M340.056 155.752C340.718 155.28 341.69 154.848 342.929 154.408C342.253 154.864 341.309 155.328 340.056 155.752Z" fill="#F1F0F1"/>
<path d="M335.479 157.322C335.18 157.286 335.307 156.983 335.379 156.837C336.299 156.46 337.146 156.231 338.256 156.01C337.606 156.464 336.692 156.911 335.479 157.322Z" fill="#F1F0F1"/>
<path d="M213.041 160.577C213.041 160.577 213.004 160.24 212.985 160.072C213.549 159.358 214.131 158.812 214.991 158.217C215.27 158.168 215.377 158.274 215.319 158.514C214.744 159.359 214.227 159.965 213.542 160.566C213.375 160.562 213.041 160.577 213.041 160.577Z" fill="#C93232"/>
<path d="M348.479 135.11C348.686 135.021 348.748 135.31 348.688 135.692C348.158 136.471 347.688 136.869 347.217 137.268C347.217 137.268 347.086 137.14 347.021 137.076C347.394 136.408 347.832 135.804 348.479 135.11Z" fill="#D3363E"/>
<path d="M151.942 96.027C151.235 95.8253 150.559 95.3021 149.74 94.5656C150.389 94.8034 151.182 95.2545 151.942 96.027Z" fill="#F8F8F8"/>
<path d="M216.46 156.492C216.718 156.531 216.771 156.678 216.735 157.264C216.222 157.893 215.8 158.084 215.377 158.274C215.377 158.274 215.27 158.168 215.216 158.115C215.527 157.575 215.892 157.088 216.46 156.492Z" fill="#C93232"/>
<path d="M91.6575 108.214C91.6285 108.711 91.3626 109.278 90.8408 109.884C90.8635 109.376 91.1421 108.83 91.6575 108.214Z" fill="#EFB57B"/>
<path d="M255.823 199.219C255.699 199.509 255.567 199.53 255.046 199.529C254.523 199.493 254.389 199.481 254.255 199.469C254.255 199.469 254.205 199.142 254.179 198.98C254.501 198.53 254.849 198.242 255.427 197.923C255.709 198.245 255.762 198.597 255.823 199.219Z" fill="#E9AD69"/>
<path d="M176.722 158.958C176.621 158.869 176.638 158.877 176.662 158.872C176.732 158.927 176.778 158.987 176.722 158.958Z" fill="#C93232"/>
<path d="M139.968 43.4328C139.645 43.7627 139.365 43.9006 138.953 44.2325C138.82 44.4265 138.46 44.4157 138.263 44.1848C138.053 43.6442 138.039 43.3344 138.025 43.0247C138.417 42.9851 138.809 42.9455 139.499 42.9083C139.868 43.0207 139.94 43.1308 139.968 43.4328Z" fill="#C93232"/>
<path d="M157.141 80.3055C157.547 80.2833 158.144 80.3799 158.901 80.6374C158.485 80.6737 157.908 80.5491 157.141 80.3055Z" fill="#D3363E"/>
<path d="M154.699 79.605C155.151 79.5699 155.805 79.6773 156.631 79.9688C156.168 80.0177 155.534 79.8825 154.699 79.605Z" fill="#D3363E"/>
<path d="M76.2336 145.783C76.1293 146.195 75.8232 146.697 75.2827 147.241C75.3761 146.814 75.7039 146.344 76.2336 145.783Z" fill="#EFB57B"/>
<path d="M160.147 81.1287C160.368 81.0699 160.736 81.1327 161.247 81.3194C161.024 81.3789 160.659 81.3146 160.147 81.1287Z" fill="#D3363E"/>
<path d="M265.275 210.15C265.232 209.969 265.286 209.626 265.424 209.132C265.463 209.316 265.418 209.652 265.275 210.15Z" fill="#C93232"/>
<path d="M332.612 161.086C332.477 160.776 332.513 160.288 332.729 159.62C332.867 159.93 332.826 160.419 332.612 161.086Z" fill="#F1F0F1"/>
<path d="M224.676 159.477C224.702 159.811 224.649 159.946 224.525 160.287C224.26 160.093 224.067 159.694 223.877 159.062C224.12 158.978 224.358 159.128 224.676 159.477Z" fill="#D11F2B"/>
<path d="M275.942 109.451C276.08 109.62 276.136 109.943 276.163 110.43C276.042 110.264 275.951 109.935 275.942 109.451Z" fill="#D3363E"/>
<path d="M62.6067 215.52C62.4887 215.564 62.699 215.442 62.7028 215.432C62.7066 215.421 62.8707 215.262 62.8707 215.262C62.8707 215.262 62.7247 215.476 62.6067 215.52Z" fill="#398BBF"/>
<path d="M362.242 133.119C362.153 132.988 362.212 132.746 362.447 132.416C362.642 132.587 362.564 132.814 362.242 133.119Z" fill="#F1F0F1"/>
<path d="M330.295 169.723C330.119 169.578 330.187 169.362 330.505 169.076C330.663 169.217 330.591 169.432 330.295 169.723Z" fill="#F1F0F1"/>
<path d="M148.953 69.1461C148.808 69.1819 148.582 69.026 148.28 68.6741C148.426 68.6368 148.649 68.7956 148.953 69.1461Z" fill="#D3363E"/>
<path d="M147.449 67.5906C147.296 67.6398 147.057 67.4936 146.739 67.1485C146.894 67.0981 147.128 67.2467 147.449 67.5906Z" fill="#D3363E"/>
<path d="M361.441 137.735C361.302 137.597 361.321 137.292 361.513 136.824C361.657 136.964 361.629 137.266 361.441 137.735Z" fill="#F1F0F1"/>
<path d="M171.093 158.828C171.064 158.839 171.083 158.798 171.092 158.821C171.101 158.845 171.121 158.817 171.093 158.828Z" fill="#C93232"/>
<path d="M82.7749 137.331C82.9476 137.31 83.0469 137.457 83.1031 137.618C83.1165 137.657 82.9851 137.745 82.7853 137.851C82.6621 137.763 82.6739 137.633 82.7749 137.331Z" fill="#EFB57B"/>
<path d="M331.113 167.369C330.909 167.232 330.959 167.009 331.277 166.704C331.446 166.838 331.387 167.058 331.113 167.369Z" fill="#F1F0F1"/>
<path d="M348.665 151.836C348.653 151.672 348.844 151.483 349.243 151.281C349.256 151.449 349.061 151.63 348.665 151.836Z" fill="#F1F0F1"/>
<path d="M347.195 152.658C347.093 152.437 347.248 152.266 347.667 152.163C347.752 152.38 347.593 152.539 347.195 152.658Z" fill="#F1F0F1"/>
<path d="M331.954 164.229C331.731 164.111 331.759 163.902 332.064 163.612C332.23 163.73 332.185 163.932 331.954 164.229Z" fill="#F1F0F1"/>
<path d="M351.134 150.335C351.026 150.129 351.166 149.954 351.565 149.834C351.656 150.04 351.509 150.199 351.134 150.335Z" fill="#F1F0F1"/>
<path d="M149.766 69.9053C149.601 69.9649 149.375 69.8225 149.071 69.4901C149.231 69.4344 149.468 69.5689 149.766 69.9053Z" fill="#D3363E"/>
<path d="M353.371 148.721C353.347 148.556 353.525 148.35 353.911 148.118C353.937 148.288 353.755 148.485 353.371 148.721Z" fill="#F1F0F1"/>
<path d="M358.319 144.083C358.148 143.913 358.239 143.693 358.606 143.437C358.753 143.605 358.653 143.816 358.319 144.083Z" fill="#F1F0F1"/>
<path d="M354.31 148.015C354.173 147.811 354.293 147.625 354.69 147.49C354.796 147.692 354.663 147.856 354.31 148.015Z" fill="#F1F0F1"/>
<path d="M190.218 259.322C194.678 258.848 199.139 258.373 203.923 257.637C204.503 257.383 204.76 257.39 205.017 257.397C211.346 256.119 217.769 255.172 223.961 253.413C226.776 252.613 229.134 250.206 231.938 248.437C237.024 249.464 241.89 250.501 246.705 251.739C248.748 252.264 250.682 253.212 253.112 254.139C250.304 258.552 246.144 258.898 242.55 259.316C230.775 260.685 218.931 261.449 207.133 262.631C199.604 263.385 192.13 264.869 184.591 265.278C178.083 265.631 171.518 264.927 165.133 264.39C172.511 264.255 179.785 264.8 186.758 261.171C188.086 260.531 189.152 259.926 190.218 259.322Z" fill="#DDD5D3"/>
<path d="M101.358 229.788C101.457 229.696 101.556 229.603 101.897 229.793C103.34 233.727 105.613 234.527 111.025 233.109C111.59 233.154 111.911 233.206 112.31 233.482C113.165 234.229 113.942 234.753 114.881 235.5C116.162 235.369 117.28 235.013 118.709 234.622C119.438 234.604 119.856 234.623 120.295 234.911C122.068 236.939 124.958 238.492 125.323 240.502C125.97 244.066 125.084 247.908 124.563 251.796C121.074 252.318 117.86 252.678 114.649 252.715C114.394 249.318 113.988 246.249 113.913 243.172C113.786 237.961 112.684 237.051 107.014 238.241C106.615 244.253 107.726 249.862 111.259 254.834C109.33 254.859 107.738 254.813 106.146 254.767C99.7025 247.97 99.486 239.581 100.48 230.698C101.054 230.199 101.206 229.994 101.358 229.788Z" fill="#398BBF"/>
<path d="M57.6642 233.703C58.563 233.495 59.0976 233.325 59.8301 233.054C64.222 233.482 68.4231 233.96 72.6081 234.553C76.956 235.168 81.2882 235.894 85.6043 237.46C78.2949 241.612 70.4785 241.598 62.477 241.527C62.7799 238.456 60.3317 237.211 59.0453 238.992C56.3134 242.775 52.864 241.477 49.6747 241.432C46.0996 241.382 42.5085 240.712 38.9846 240.01C38.1055 239.835 36.7563 238.374 36.8728 237.729C37.0361 236.825 38.2994 235.551 39.2127 235.442C45.2237 234.724 51.2671 234.276 57.6642 233.703Z" fill="#D5D4D5"/>
<path d="M186.496 261.207C179.786 264.8 172.511 264.255 164.931 264.172C163.744 264.164 162.915 264.076 161.528 263.844C158.278 263.614 155.587 263.529 152.897 263.444C150.523 263.384 148.149 263.325 145.075 263.242C134.94 263.455 125.504 263.691 116.048 263.677C115.758 261.61 115.489 259.792 115.548 257.977C122.132 258.383 128.385 258.968 134.649 259.145C141.852 259.348 149.094 258.781 156.267 259.288C166.317 259.998 176.241 263.608 186.434 260.483C186.464 260.886 186.48 261.047 186.496 261.207Z" fill="#D0222E"/>
<path d="M286.247 238.459C292.789 238.186 299.331 237.914 306.364 237.907C307.586 239.319 308.318 240.467 309.127 241.678C309.288 241.675 309.451 241.565 309.442 241.548C309.335 241.353 309.202 241.172 309.007 240.661C308.912 239.447 308.886 238.559 308.86 237.671C316.905 237.76 325.082 236.745 333.404 240.518C330.084 243.762 326.174 243.413 322.737 243.755C319.334 244.094 315.831 243.398 312.37 243.193C311.081 243.116 309.684 242.811 308.51 243.173C299.891 245.833 291.483 243.401 282.694 242.022C283.662 240.644 284.955 239.551 286.247 238.459Z" fill="#D5D4D5"/>
<path d="M112.232 233.259C111.911 233.206 111.59 233.153 110.721 233.029C108.36 232.55 106.547 232.142 104.145 231.602C105.901 230.129 106.893 229.296 107.886 228.463C110.619 226.358 113.027 223.5 117.421 224.502C118.621 224.468 119.497 224.421 120.656 224.628C121.614 227.145 122.29 229.409 123.052 231.963C127.049 232.419 127.049 232.419 130.883 227.591C130.883 227.591 131 227.536 131.13 227.758C132.619 228.85 133.977 229.72 135.408 230.804C135.042 231.412 134.604 231.805 133.837 232.202C131.85 232.445 130.197 232.84 128.532 232.897C123.101 233.084 117.666 233.148 112.232 233.259Z" fill="#941C49"/>
<path d="M116.069 263.926C125.505 263.691 134.94 263.455 144.726 263.318C140.731 264.175 136.405 265.415 132.035 265.592C123.45 265.94 114.839 265.634 106.241 265.735C103.296 265.769 100.359 266.301 97.4109 266.419C96.4279 266.458 95.4216 265.913 94.6318 264.896C96.7359 264.631 98.8399 264.365 101.542 264.125C106.784 264.075 111.426 264.001 116.069 263.926Z" fill="#DDD5D3"/>
<path d="M116.048 263.677C111.426 264.001 106.783 264.076 101.801 264.142C104.033 262.763 106.604 261.393 109.483 259.629C110.52 258.186 111.247 257.137 112.218 256.259C113.152 256.756 113.844 257.083 114.639 257.519C114.907 257.736 115.066 257.852 115.22 257.975C115.489 259.792 115.758 261.61 116.048 263.677Z" fill="#3C6B3C"/>
<path d="M111.975 256.088C111.248 257.137 110.52 258.186 109.581 259.363C105.545 258.96 101.719 258.428 97.8927 257.897C97.8848 257.514 97.8768 257.13 97.8689 256.747C100.487 256.238 103.106 255.73 105.935 254.994C107.738 254.813 109.33 254.859 111.412 254.884C111.902 254.863 112.213 254.95 112.257 255.109C112.301 255.267 112.394 255.582 112.265 255.689C112.136 255.795 111.975 256.088 111.975 256.088Z" fill="#D5D4D5"/>
<path d="M107.555 228.411C106.893 229.296 105.901 230.129 104.145 231.602C106.547 232.142 108.36 232.55 110.477 233.037C105.613 234.527 103.34 233.727 102.092 229.738C103.771 229.054 105.497 228.706 107.555 228.411Z" fill="#556798"/>
<path d="M308.649 237.458C308.886 238.559 308.912 239.447 308.972 240.816C309.006 241.297 309.049 241.614 309.049 241.614C308.318 240.467 307.586 239.319 306.735 237.914C306.363 235.769 306.111 233.882 305.913 231.686C306.298 231.401 306.629 231.427 307.21 231.459C307.787 233.391 308.113 235.318 308.649 237.458Z" fill="#EFB57B"/>
<path d="M153.094 263.656C155.588 263.529 158.278 263.614 161.218 263.891C158.742 264.011 156.017 263.94 153.094 263.656Z" fill="#DDD5D3"/>
<path d="M307.039 224.894C306.96 224.526 306.984 223.902 307.13 223.408C307.215 223.906 307.178 224.272 307.039 224.894Z" fill="#EFB57B"/>
<path d="M61.485 226.52C61.2221 226.592 61.0588 226.398 60.9307 225.953C61.1035 225.945 61.3097 226.128 61.485 226.52Z" fill="#4D9BD6"/>
<path d="M101.163 229.829C101.207 229.994 101.054 230.199 100.713 230.454C100.671 230.291 100.819 230.081 101.163 229.829Z" fill="#556798"/>
<path d="M235.95 66.3059C237.648 66.9367 239.622 67.4335 237.877 69.7459C229.878 80.3474 220.483 89.1808 207.538 93.4629C214.391 87.1202 221.415 81.0461 228.233 74.75C230.963 72.2282 233.242 69.2175 235.95 66.3059Z" fill="#7CA649"/>
<path d="M194.98 60.4407C194.559 60.0418 194.383 59.8365 194.248 59.4328C195.075 58.2403 195.844 57.2322 196.652 56.2564C197.274 55.5055 197.945 54.7952 198.594 54.0669C198.963 54.6094 199.332 55.152 199.587 56.1982C199.149 56.9885 198.826 57.2752 198.502 57.5619C200.271 58.1915 202.184 59.5843 203.778 59.2842C206.665 58.7403 209.362 57.1875 212.139 56.0559C213.022 56.3313 213.905 56.6067 215.086 56.8911C210.525 62.4075 204.266 62.1317 197.836 61.1307C196.961 60.9946 196.095 60.8013 194.98 60.4407Z" fill="#B01C2B"/>
<path d="M136.461 227.547C130.246 215.524 123.515 203.674 124.013 189.453C124.162 185.196 125.368 184.318 129.577 185.057C136.802 186.325 144.045 187.525 151.314 188.499C154.049 188.866 155.309 190.009 155.226 192.702C154.679 210.417 159.97 227.079 164.486 243.88C164.654 244.504 165.116 245.145 165.035 245.72C164.871 246.87 164.426 247.979 164.096 249.105C162.999 248.425 161.405 248.003 160.893 247.019C159.113 243.599 157.869 239.902 156.113 236.468C154.475 233.267 152.506 233.145 149.746 236.188C148.966 237.294 148.299 237.917 147.321 238.498C145.858 237.402 144.707 236.349 143.552 235.005C143.544 234.136 143.54 233.556 143.727 232.819C143.002 231.996 142.086 231.332 140.917 230.668C140.329 230.65 139.993 230.631 139.6 230.366C138.516 229.262 137.489 228.405 136.461 227.547Z" fill="#EFB57B"/>
<path d="M172.357 215.837C171.903 213.915 171.449 211.994 170.934 209.565C171.63 208.455 172.388 207.853 173.154 207.583C173.161 209.365 173.161 210.815 173.161 213.235C174.533 211.704 175.138 211.028 175.919 210.156C176.697 211.061 177.28 211.739 178.29 212.912C178.29 210.732 178.29 209.231 178.29 207.016C175.969 209.512 174.847 209.063 174.439 206.424C174.395 206.139 173.629 205.965 173.297 205.5C174.545 204.056 175.925 202.997 176.796 201.618C179.338 197.59 181.677 193.434 184.096 189.328C187.146 194.191 190.639 198.85 193.017 204.022C193.917 205.978 192.389 209.158 191.675 211.698C191.341 212.884 189.851 213.813 189.697 214.966C189.436 216.925 189.818 218.969 189.93 220.977C191.973 219.871 194.214 219.005 195.976 217.558C196.865 216.827 196.887 215.042 197.351 213.578C201.116 221.241 200.287 226.691 194.355 231.846C193.296 231.106 192.578 230.487 191.86 229.868C191.86 229.868 191.881 229.857 191.679 229.639C188.746 229.052 186.015 228.683 183.283 228.314C183.283 228.314 183.302 228.301 183.173 228.114C182.603 227.795 182.162 227.663 181.721 227.531C181.721 227.531 181.743 227.52 181.613 227.334C181.043 227.017 180.603 226.886 180.162 226.755C180.162 226.755 180.18 226.741 180.098 226.574C179.806 226.262 179.594 226.118 179.383 225.974C179.383 225.974 179.403 225.969 179.4 225.677C178.16 222.099 177.906 218.199 173.922 216.626C173.922 216.626 173.942 216.612 173.814 216.424C173.243 216.103 172.8 215.97 172.357 215.837ZM184.109 212.224C184.65 211.075 185.192 209.926 185.733 208.777C185.439 208.658 185.144 208.539 184.849 208.42C184.106 209.33 183.362 210.239 182.429 211.381C181.493 210.135 180.819 209.239 179.811 207.898C180.48 213.028 180.48 213.028 184.109 212.224Z" fill="#DD9A58"/>
<path d="M112.394 255.582C112.394 255.582 112.301 255.267 112.482 254.975C113.324 254.135 113.986 253.587 114.647 253.039C117.861 252.678 121.074 252.318 124.919 251.854C128.951 251.696 132.352 251.643 136.099 251.647C138.374 251.68 140.303 251.654 142.436 251.769C144.633 251.802 146.626 251.696 148.619 251.589C156.267 252.943 163.915 254.298 171.994 255.822C172.631 256.17 172.867 256.231 173.132 256.174C173.484 256.228 173.835 256.281 174.453 256.354C178.463 256.866 182.21 257.334 185.948 257.865C187.365 258.066 188.762 258.41 190.193 259.006C189.152 259.926 188.086 260.53 186.758 261.171C186.48 261.047 186.464 260.886 186.392 260.202C184.294 259.598 182.252 259.518 179.983 259.22C175.459 258.238 171.072 257.799 166.883 256.644C156.488 253.779 145.807 253.941 135.209 253.31C131.513 253.09 127.764 253.754 123.682 254.01C120.446 254.271 117.566 254.536 114.459 254.892C113.619 255.183 113.006 255.383 112.394 255.582Z" fill="#C93232"/>
<path d="M184.065 189.076C181.677 193.434 179.338 197.59 176.796 201.618C175.925 202.997 174.545 204.056 173.285 205.752C173.163 206.579 173.155 206.915 173.147 207.251C172.388 207.853 171.63 208.455 170.847 209.32C161.551 215.929 162.527 227.832 173.047 233.131C176.525 234.883 180.645 235.363 184.361 236.688C182.363 237.044 180.439 237.416 178.594 237.179C172.147 236.353 167.696 232.336 163.826 227.502C163.482 224.254 162.381 220.867 162.95 217.787C164.209 210.959 169.72 206.717 174.214 201.979C178.173 197.805 181.897 193.578 182.789 186.985C183.407 187.897 183.721 188.36 184.065 189.076Z" fill="#D18D47"/>
<path d="M163.618 227.67C167.696 232.336 172.148 236.353 178.594 237.179C180.439 237.416 182.363 237.044 184.563 236.916C186.814 236.471 188.752 236.061 190.69 235.65C190.825 236.092 190.96 236.534 191.095 236.976C187.954 237.939 184.872 239.241 181.661 239.789C175.931 240.768 166.294 235.535 163.724 230.345C163.371 229.632 163.503 228.68 163.618 227.67Z" fill="#EFB57B"/>
<path d="M147.633 238.54C148.299 237.917 148.966 237.294 149.739 236.474C151.05 236.361 152.255 236.446 153.563 237.085C153.16 239.207 152.655 240.776 151.954 242.172C150.406 242.225 149.053 242.449 147.623 242.687C147.463 244.268 147.323 245.654 146.932 247.183C145.339 247.456 143.997 247.586 142.664 247.45C142.922 246.33 143.17 245.478 143.479 244.379C143.556 243.795 143.571 243.457 143.558 243.116C143.531 243.113 143.559 243.16 143.795 243.052C145.232 241.476 146.433 240.008 147.633 238.54Z" fill="#75A235"/>
<path d="M130.767 227.357C127.049 232.419 127.049 232.419 123.052 231.963C122.29 229.409 121.614 227.145 120.902 224.605C123.356 222.413 125.532 222.135 127.551 225.135C128.18 226.069 129.596 226.475 130.767 227.357Z" fill="#B01C2B"/>
<path d="M152.149 242.344C152.655 240.776 153.16 239.207 153.652 237.322C155.717 239.746 155.092 244.267 151.994 248.129C151.107 249.234 149.99 250.155 148.799 251.374C146.626 251.696 144.633 251.802 142.473 251.601C142.306 251.292 142.396 250.959 142.657 250.938C143.6 250.55 144.282 250.184 144.964 249.817C144.201 249.126 143.438 248.436 142.677 247.738C142.679 247.731 142.655 247.717 142.655 247.717C143.997 247.586 145.339 247.456 147.206 247.274C152.013 248.136 151.116 244.368 152.149 242.344Z" fill="#698333"/>
<path d="M178.381 178.709C179.203 178.484 179.792 178.476 180.675 178.48C184.383 178.733 187.796 179.131 191.212 179.164C193.872 179.189 194.751 180.106 194.012 182.227C185.731 181.262 177.636 180.318 169.834 179.409C172.36 179.262 175.254 179.094 178.381 178.709Z" fill="#DE9B5A"/>
<path d="M176.21 169.941C175.696 171.48 175.196 173.01 174.637 174.808C173.099 175.043 171.619 175.008 169.835 174.879C168.872 172.335 167.465 169.593 172.254 169.31C173.907 169.676 175.067 169.808 176.227 169.939C176.227 169.939 176.223 169.93 176.21 169.941Z" fill="#232323"/>
<path d="M136.128 227.546C137.489 228.405 138.516 229.262 139.579 230.388C139.614 230.656 139.573 230.701 139.407 230.72C139.24 230.739 138.92 230.841 138.693 230.665C137.423 230.522 136.379 230.557 135.336 230.591C133.977 229.72 132.619 228.85 131.192 227.739C132.681 227.513 134.238 227.529 136.128 227.546Z" fill="#DE9B5A"/>
<path d="M174.031 216.876C177.906 218.199 178.16 222.099 179.391 225.684C177.637 223.031 175.889 220.078 174.031 216.876Z" fill="#D18D47"/>
<path d="M191.962 230.098C192.578 230.487 193.296 231.106 194.115 231.959C193.028 232.818 191.841 233.442 190.315 234.243C191.063 232.568 191.564 231.448 191.962 230.098Z" fill="#D18D47"/>
<path d="M183.474 228.54C186.015 228.683 188.746 229.052 191.68 229.651C189.143 229.509 186.404 229.138 183.474 228.54Z" fill="#D18D47"/>
<path d="M180.293 226.949C180.603 226.886 181.043 227.017 181.613 227.346C181.302 227.41 180.863 227.277 180.293 226.949Z" fill="#D18D47"/>
<path d="M172.492 216.028C172.8 215.97 173.243 216.103 173.812 216.436C173.501 216.497 173.064 216.358 172.492 216.028Z" fill="#D18D47"/>
<path d="M181.851 227.726C182.162 227.663 182.603 227.795 183.17 228.126C182.858 228.19 182.419 228.056 181.851 227.726Z" fill="#D18D47"/>
<path d="M173.013 256.031C172.867 256.231 172.631 256.17 172.306 255.846C172.449 255.661 172.686 255.724 173.013 256.031Z" fill="#DE9B5A"/>
<path d="M179.465 226.15C179.594 226.118 179.806 226.262 180.097 226.585C179.914 226.693 179.704 226.547 179.465 226.15Z" fill="#D18D47"/>
<path d="M205.198 257.129C204.76 257.39 204.503 257.383 204.056 257.355C201.108 257.335 198.349 257.335 195.59 257.335C195.556 257.192 195.522 257.048 195.488 256.904C201.521 255.918 207.555 254.933 213.588 253.947C213.657 254.223 213.726 254.5 213.795 254.777C210.99 255.472 208.185 256.167 205.198 257.129Z" fill="#D18D47"/>
<path d="M214.05 178.415C215.547 175.399 218.493 177.547 221.194 176.898C219.697 179.917 216.752 177.774 214.05 178.415Z" fill="#E9AD69"/>
<path d="M217.941 252.717C218.793 252.589 219.404 252.562 220.014 252.534C220.049 252.771 220.084 253.007 220.12 253.244C218.779 253.526 217.439 253.809 216.098 254.091C216.051 253.906 216.005 253.722 215.958 253.537C216.538 253.297 217.119 253.057 217.941 252.717Z" fill="#D18D47"/>
<path d="M221.934 252.106C221.891 252.131 221.977 252.081 221.934 252.106V252.106Z" fill="#D18D47"/>
<path d="M81.9145 39.7432C81.8379 39.7692 81.7575 39.7905 81.789 39.7713C81.901 39.7307 81.9107 39.7385 81.9145 39.7432Z" fill="#FFFEFE"/>
<path d="M112.444 95.9956C116.691 97.9869 118.334 101.76 116.707 107.915C115.402 112.852 113.261 117.569 111.298 122.779C110.985 123.406 110.867 123.638 110.748 123.87C110.748 123.87 110.768 123.89 110.519 123.978C109.578 125.04 108.885 126.016 108.192 126.991C107.051 128.079 105.909 129.168 104.462 130.601C103.954 131.168 103.751 131.392 103.549 131.615C103.179 131.743 102.809 131.87 102.329 132.159C99.5285 133.574 96.9319 135.123 94.1258 136.014C89.6713 137.427 86.6609 135.371 85.7522 130.458C91.3635 132.19 95.8589 129.485 100.071 126.487C108.513 120.478 113.326 112.258 113.812 101.811C113.897 99.9936 112.993 98.1306 112.444 95.9956Z" fill="#BF7936"/>
<path d="M45.2449 182.399C45.7042 181.18 46.0761 180.267 46.7756 179.359C48.4978 182.363 49.4524 179.646 50.6094 179.128C50.6449 179.158 50.7152 179.218 50.7152 179.218C49.6767 181.383 48.6382 183.549 47.5885 186.008C46.7707 185.104 45.9641 183.905 45.2449 182.399Z" fill="#EFB57B"/>
<path d="M53.2805 176.043C53.6254 175.083 54.2566 174.112 55.1172 173.031C54.7534 173.959 54.1601 174.995 53.2805 176.043Z" fill="#EFB57B"/>
<path d="M85.1467 130.161C84.9785 128.812 85.0178 127.489 85.0846 125.841C85.3405 126.857 85.5688 128.2 85.7849 129.858C85.6331 130.178 85.4937 130.183 85.1467 130.161Z" fill="#BF7936"/>
<path d="M55.6023 172.915C55.7197 172.243 56.116 171.552 56.7241 170.736C56.5843 171.373 56.2328 172.134 55.6023 172.915Z" fill="#EFB57B"/>
<path d="M50.8867 177.879C51.2166 177.602 51.5466 177.325 52.0682 176.95C51.926 177.613 51.5922 178.376 50.9867 179.179C50.7151 179.218 50.6448 179.158 50.653 178.922C50.7363 178.417 50.8115 178.148 50.8867 177.879Z" fill="#EFB57B"/>
<path d="M57.1199 170.532C57.0618 170.389 57.2004 170.143 57.5131 169.769C57.5637 169.903 57.4401 170.166 57.1199 170.532Z" fill="#EFB57B"/>
<path d="M52.4299 176.787C52.3838 176.644 52.5187 176.418 52.8409 176.12C52.8891 176.266 52.75 176.486 52.4299 176.787Z" fill="#EFB57B"/>
<path d="M41.3547 210.38C41.4269 210.351 41.4997 210.324 41.4646 210.339C41.3567 210.381 41.3547 210.38 41.3547 210.38Z" fill="#EFB57B"/>
<path d="M94.7303 117.322C94.6378 112.709 97.1058 109.655 100.213 107.073C100.969 106.445 102.576 106.044 103.327 106.433C104.041 106.804 104.476 108.346 104.469 109.369C104.431 114.716 99.0796 119.221 94.7303 117.322Z" fill="#D18D47"/>
<path d="M176.207 169.662C175.067 169.808 173.907 169.676 172.567 169.318C173.653 169.19 174.92 169.287 176.207 169.662Z" fill="#8F5424"/>
<path d="M347.138 137.516C347.688 136.869 348.158 136.471 348.704 135.839C349.57 135.598 350.358 135.591 351.445 135.593C352.585 140.537 349.966 143.647 346.166 146.123C336.688 152.299 326.42 155.444 315.208 152.634C307.744 150.762 300.088 148.894 293.995 143.63C285.432 136.23 280.721 126.651 278.494 115.749C277.774 112.227 277.416 108.631 276.887 104.723C277.839 106.086 278.961 107.726 279.71 109.521C280.514 111.449 280.968 113.524 281.356 116.01C281.255 117.587 280.991 118.952 281.547 119.746C286.527 126.872 291.225 134.26 296.857 140.845C302.055 146.923 309.987 148.828 317.479 149.301C324.275 149.73 331.243 148.047 338.066 146.89C339.412 146.661 340.446 144.588 341.623 143.366C341.623 143.366 341.625 143.371 341.861 143.362C342.452 143.08 342.807 142.808 343.162 142.535C344.461 140.945 345.76 139.354 347.138 137.516Z" fill="#EB1D27"/>
<path d="M215.319 158.514C215.8 158.084 216.223 157.893 216.764 157.496C218.241 157.621 219.599 157.952 221.254 158.363C218.375 161.215 215.2 163.987 211.639 166.595C211.044 166.275 210.832 166.118 210.62 165.961C210.638 165.609 210.655 165.257 210.845 164.566C211.188 164.088 211.308 163.915 211.378 163.707C211.378 163.707 211.41 163.668 211.684 163.611C212.542 162.559 213.126 161.565 213.71 160.57C214.227 159.965 214.744 159.359 215.319 158.514Z" fill="#D11F2B"/>
<path d="M210.378 166.085C210.832 166.118 211.043 166.275 211.358 166.606C211.443 167.351 211.425 167.922 211.411 169.016C211.666 169.905 211.915 170.272 212.164 170.639C212.338 171.748 212.512 172.857 212.464 174.222C210.415 174.576 208.588 174.675 206.761 174.774C206.623 174.738 206.484 174.702 206.14 174.604C207.335 171.764 208.735 168.987 210.378 166.085Z" fill="#B01C2B"/>
<path d="M211.188 163.69C211.308 163.915 211.188 164.088 210.881 164.305C210.744 164.382 210.662 164.033 210.64 163.855C210.619 163.677 210.999 163.673 211.188 163.69Z" fill="#B01C2B"/>
<path d="M305.732 167.262C305.725 166.532 305.757 166.134 305.777 165.154C307.443 161.052 309.639 164.895 312.386 163.69C308.408 166.388 311.935 166.528 312.582 167.571C312.577 167.721 312.572 167.872 312.576 168.249C312.14 169.495 311.958 170.838 311.191 171.462C309.992 172.436 308.397 172.923 306.97 173.617C306.569 172.251 306.116 170.898 305.792 169.515C305.65 168.906 305.77 168.236 305.732 167.262Z" fill="#E0766A"/>
<path d="M207.016 174.949C208.588 174.675 210.415 174.576 212.582 174.419C214.01 174.405 215.098 174.451 216.51 174.535C213.647 174.757 210.459 174.941 207.016 174.949Z" fill="#E9AD69"/>
<path d="M173.586 107.126C175.5 106.567 177.504 106.269 179.847 105.969C182.1 106.411 184.015 106.856 186.003 107.624C184.33 107.947 182.583 107.947 179.957 107.947C181.173 108.578 181.576 108.916 182.028 109.003C191.066 110.748 200.102 112.507 209.169 114.087C209.776 114.192 210.628 112.893 211.366 112.247C212.942 112.778 214.517 113.308 216.375 113.898C221.708 116.215 226.759 118.473 232.106 120.779C228.689 124.292 224.438 122.067 221.222 120.76C209.351 115.937 197.158 113.102 184.423 112.117C181.397 111.883 178.45 110.632 175.166 109.843C174.469 109.021 174.073 108.205 173.586 107.126Z" fill="#EB1D27"/>
<path d="M341.335 143.391C340.446 144.588 339.412 146.661 338.066 146.889C331.243 148.046 324.275 149.73 317.479 149.301C309.987 148.828 302.055 146.923 296.857 140.845C291.225 134.26 286.527 126.872 281.547 119.746C280.991 118.952 281.255 117.587 281.358 116.316C294.307 142.204 312.664 153.043 341.335 143.391Z" fill="#F83344"/>
<path d="M342.931 142.564C342.807 142.808 342.452 143.08 341.859 143.361C341.981 143.11 342.34 142.851 342.931 142.564Z" fill="#F83344"/>
<path d="M59.1197 189.751C59.3211 189.993 59.3127 190.256 59.3034 190.717C59.1606 190.919 59.0187 190.921 58.6638 190.915C58.6038 190.528 58.7569 190.149 59.1197 189.751Z" fill="#5192BD"/>
<path d="M57.5293 192.469C57.685 192.657 57.5688 192.882 57.1867 193.148C57.1269 193.009 57.239 192.782 57.5293 192.469Z" fill="#5192BD"/>
<path d="M136.738 164.575C136.533 164.088 136.54 163.755 136.797 163.157C137.379 162.908 137.71 162.925 138.136 163.097C138.4 163.443 138.609 163.563 139.152 163.746C142.638 164.121 145.829 164.361 149.021 164.601C147.267 165.275 145.513 165.949 142.941 166.938C145.28 166.938 147.064 167.235 148.702 166.875C151.921 166.167 155.198 165.408 158.2 164.097C162.596 162.176 165.64 158.75 167.396 154.198C167.891 152.916 168.834 151.807 169.812 150.497C171.126 154.24 168.862 157.046 166.63 159.511C160.887 165.853 154.08 170.037 144.963 169.14C141.529 168.803 138.667 167.936 136.738 164.575Z" fill="#75A235"/>
<path d="M108.497 126.988C108.885 126.016 109.578 125.04 110.51 123.969C110.1 124.91 109.451 125.947 108.497 126.988Z" fill="#E9AD69"/>
<path d="M103.708 131.755C103.751 131.392 103.954 131.168 104.333 130.799C104.295 131.067 104.081 131.48 103.708 131.755Z" fill="#E9AD69"/>
<path d="M110.952 123.89C110.867 123.638 110.985 123.406 111.269 123.062C111.462 123.104 111.491 123.258 111.542 123.645C111.427 123.889 111.291 123.899 110.952 123.89Z" fill="#E9AD69"/>
<path d="M149.324 164.545C145.829 164.361 142.638 164.121 139.065 163.582C138.52 163.074 138.306 162.96 138.041 162.942C137.71 162.925 137.379 162.908 136.8 162.907C136.37 162.692 136.187 162.461 135.833 162.087C143.087 161.314 150.511 160.684 158.199 160.248C155.517 161.791 152.572 163.14 149.324 164.545Z" fill="#8F5424"/>
<path d="M60.0806 232.205C59.8915 231.937 59.6951 231.662 59.4988 231.387C59.5964 231.319 59.694 231.251 59.7917 231.183C59.8826 231.401 59.9736 231.619 60.075 232.026C60.0855 232.215 60.0734 232.198 60.0806 232.205Z" fill="#4D9BD6"/>
<path d="M50.7379 177.582C50.8117 178.148 50.7365 178.417 50.6176 178.892C49.4525 179.646 48.4979 182.363 46.9759 179.178C46.8518 178.467 46.8552 177.942 46.8659 177.153C47.8659 175.136 48.8585 173.383 49.6654 171.958C49.9173 173.411 50.2531 175.348 50.7379 177.582Z" fill="#AB206C"/>
<path d="M145.131 96.4175C145.421 96.9514 145.936 97.3246 145.878 97.4663C145.677 97.9623 145.068 98.8033 144.986 98.7626C143.116 97.8393 141.297 96.8161 139.467 95.8116C139.88 95.2822 140.189 94.5634 140.73 94.2681C141.518 93.8377 142.472 93.7121 143.781 93.3336C144.165 94.1588 144.628 95.1547 145.131 96.4175Z" fill="#F1F0F1"/>
<path d="M137.784 42.9415C138.039 43.3344 138.053 43.6442 138.083 44.1869C138.09 49.6401 138.082 54.8605 138.067 60.4509C133.628 61.6805 135.148 57.4621 134.022 55.7186C131.877 52.3992 133.506 45.2887 136.374 43.0273C136.866 42.8116 137.204 42.835 137.784 42.9415Z" fill="#EB1D27"/>
<path d="M157.575 77.8663C158.251 78.0098 158.927 78.1532 159.769 78.4999C156.253 77.7377 151.991 77.6197 149.032 75.5973C145.114 72.9187 142.216 68.751 138.847 64.951C138.815 63.4055 138.815 62.1321 138.815 60.0017C142.124 66.7612 146.466 71.4916 152.626 74.764C152.903 74.7855 152.886 74.7964 152.997 75.0186C153.819 75.6098 154.53 75.9788 155.241 76.3478C155.241 76.3478 155.227 76.3622 155.354 76.5547C156.179 77.1203 156.877 77.4933 157.575 77.8663Z" fill="#EB1D27"/>
<path d="M212.226 55.8123C209.362 57.1875 206.665 58.7403 203.777 59.2842C202.184 59.5843 200.271 58.1915 198.502 57.5619C198.825 57.2752 199.149 56.9885 199.601 56.4855C200.626 56.1771 202.064 56.4044 202.337 55.9435C205.179 51.137 209.161 55.9739 212.357 54.6569C212.383 54.6461 212.554 54.8348 212.54 54.9067C212.494 55.1334 212.392 55.3488 212.226 55.8123Z" fill="#F1F0F1"/>
<path d="M219.155 167.588C217.496 169.714 217.771 173.104 213.46 173.884C215.539 170.295 217.193 167.44 218.847 164.585C219.176 164.737 219.505 164.889 219.835 165.041C219.645 165.805 219.455 166.569 219.155 167.588Z" fill="#F83344"/>
<path d="M212.343 170.508C211.915 170.272 211.666 169.905 211.417 169.302C211.785 169.503 212.153 169.94 212.343 170.508Z" fill="#D11F2B"/>
<path d="M254.088 199.596C254.389 199.481 254.523 199.493 254.849 199.567C254.805 199.999 254.568 200.369 254.331 200.739C254.194 200.401 254.057 200.062 254.088 199.596Z" fill="#C93232"/>
<path d="M211.041 112.236C210.628 112.893 209.776 114.192 209.169 114.087C200.102 112.507 191.066 110.748 182.028 109.003C181.576 108.916 181.173 108.578 179.957 107.947C182.583 107.947 184.33 107.947 186.273 107.737C193.036 108.812 199.6 110.102 206.166 111.383C207.68 111.678 209.2 111.945 211.041 112.236Z" fill="#F83344"/>
<path d="M155.199 76.0796C154.53 75.9788 153.819 75.6099 153.001 75.0126C153.649 75.1267 154.403 75.469 155.199 76.0796Z" fill="#F83344"/>
<path d="M157.53 77.6028C156.877 77.4933 156.179 77.1203 155.356 76.5457C155.982 76.6758 156.734 77.0075 157.53 77.6028Z" fill="#F83344"/>
<path d="M213.542 160.566C213.126 161.565 212.541 162.559 211.705 163.598C211.831 162.703 212.208 161.763 212.813 160.7C213.041 160.577 213.375 160.562 213.542 160.566Z" fill="#B01C2B"/>
<path d="M135.753 251.589C132.352 251.643 128.951 251.696 125.195 251.692C125.084 247.908 125.97 244.066 125.323 240.502C124.958 238.492 122.068 236.939 120.583 234.888C122.388 234.809 123.925 235.022 125.822 235.261C129.943 234.909 133.703 234.531 137.906 234.11C137.985 235.503 138.069 236.979 138.142 238.775C138.343 240.675 138.554 242.254 138.774 244.07C138.626 244.746 138.47 245.185 138.038 245.707C137.451 247.065 137.138 248.341 136.789 249.777C136.754 249.937 136.567 250.209 136.369 250.267C136.05 250.563 135.928 250.8 135.779 251.174C135.753 251.311 135.753 251.589 135.753 251.589Z" fill="#1778A8"/>
<path d="M114.649 252.715C113.986 253.587 113.324 254.135 112.438 254.817C112.213 254.95 111.902 254.863 111.749 254.813C107.726 249.862 106.615 244.253 107.015 238.241C112.684 237.051 113.786 237.961 113.913 243.172C113.988 246.249 114.394 249.318 114.649 252.715Z" fill="#4D9BD6"/>
<path d="M125.462 235.235C123.925 235.022 122.388 234.809 120.562 234.619C119.856 234.623 119.438 234.604 118.447 234.627C116.822 234.871 115.77 235.074 114.719 235.277C113.942 234.753 113.166 234.229 112.311 233.482C117.666 233.148 123.101 233.084 128.532 232.897C130.197 232.84 131.85 232.445 133.748 232.496C132.308 233.096 130.601 233.302 128.961 233.751C127.75 234.082 126.625 234.729 125.462 235.235Z" fill="#556798"/>
<path d="M114.881 235.5C115.77 235.074 116.822 234.871 118.136 234.663C117.279 235.013 116.162 235.369 114.881 235.5Z" fill="#1778A8"/>
<path d="M180.209 259.437C182.252 259.518 184.294 259.598 186.378 259.96C176.241 263.608 166.316 259.998 156.267 259.288C149.094 258.781 141.851 259.348 134.648 259.145C128.385 258.968 122.132 258.383 115.547 257.977C115.066 257.852 114.907 257.735 114.685 257.19C114.648 256.103 114.668 255.452 114.687 254.8C117.566 254.536 120.446 254.271 123.512 254.216C123.129 254.79 122.558 255.153 121.988 255.516C128.229 255.676 134.208 256.708 140.412 255.863C146.021 255.099 151.926 256.251 157.674 256.817C165.199 257.557 172.699 258.552 180.209 259.437Z" fill="#EB1D27"/>
<path d="M309.127 241.678C309.049 241.614 309.006 241.297 309.041 241.142C309.202 241.172 309.335 241.353 309.442 241.548C309.451 241.565 309.288 241.675 309.127 241.678Z" fill="#F1F0F1"/>
<path d="M125.822 235.261C126.625 234.729 127.75 234.082 128.961 233.751C130.601 233.302 132.308 233.096 134.076 232.492C134.603 231.805 135.042 231.412 135.408 230.804C136.379 230.557 137.423 230.522 138.659 230.993C138.619 233.817 138.386 236.136 138.153 238.455C138.069 236.979 137.985 235.503 137.906 234.11C133.703 234.531 129.943 234.909 125.822 235.261Z" fill="#398BBF"/>
<path d="M114.459 254.892C114.668 255.452 114.648 256.103 114.582 257.082C113.844 257.083 113.152 256.756 112.218 256.259C111.975 256.088 112.136 255.795 112.265 255.689C113.006 255.383 113.619 255.183 114.459 254.892Z" fill="#D0222E"/>
<path d="M136.567 250.209C136.567 250.209 136.753 249.937 136.983 249.586C137.58 248.031 137.947 246.827 138.313 245.624C138.47 245.185 138.626 244.746 138.993 243.862C139.328 239.178 139.45 234.94 139.573 230.701C139.573 230.701 139.615 230.656 139.636 230.635C139.993 230.631 140.329 230.65 141.023 230.884C142.1 231.725 142.818 232.351 143.536 232.977C143.54 233.556 143.544 234.136 143.54 235.362C143.541 238.392 143.55 240.776 143.559 243.16C143.559 243.16 143.532 243.113 143.375 243.209C143.284 243.745 143.351 244.185 143.418 244.625C143.17 245.478 142.922 246.33 142.664 247.45C142.655 247.717 142.679 247.731 142.47 247.934C142.306 249.078 142.351 250.018 142.396 250.959C142.396 250.959 142.306 251.292 142.269 251.46C140.303 251.654 138.374 251.68 136.099 251.647C135.753 251.589 135.753 251.311 135.97 251.102C136.314 250.665 136.44 250.437 136.567 250.209Z" fill="#DE9B5A"/>
<path d="M143.795 243.052C143.55 240.776 143.541 238.392 143.544 235.651C144.707 236.349 145.858 237.402 147.321 238.498C146.433 240.008 145.232 241.476 143.795 243.052Z" fill="#E9AD69"/>
<path d="M143.727 232.819C142.818 232.351 142.1 231.725 141.276 230.883C142.086 231.332 143.002 231.996 143.727 232.819Z" fill="#E9AD69"/>
<path d="M173.154 207.583C173.155 206.915 173.163 206.579 173.185 205.991C173.629 205.965 174.395 206.139 174.439 206.424C174.847 209.063 175.969 209.512 178.289 207.015C178.289 209.231 178.289 210.732 178.289 212.912C177.28 211.739 176.697 211.061 175.919 210.156C175.138 211.028 174.533 211.704 173.161 213.235C173.161 210.815 173.161 209.365 173.154 207.583Z" fill="#E9AD69"/>
<path d="M183.878 212.379C180.48 213.028 180.48 213.028 179.811 207.898C180.819 209.239 181.493 210.135 182.429 211.381C183.362 210.239 184.106 209.33 184.849 208.42C185.144 208.539 185.439 208.658 185.734 208.777C185.192 209.926 184.65 211.075 183.878 212.379Z" fill="#E9AD69"/>
<path d="M179.982 259.22C172.699 258.552 165.199 257.557 157.674 256.817C151.926 256.251 146.021 255.099 140.412 255.863C134.208 256.708 128.229 255.676 121.988 255.516C122.558 255.153 123.129 254.79 123.869 254.22C127.764 253.754 131.513 253.09 135.209 253.31C145.807 253.941 156.488 253.779 166.883 256.644C171.072 257.799 175.459 258.238 179.982 259.22Z" fill="#F83344"/>
<path d="M151.954 242.172C151.116 244.368 152.013 248.136 147.457 247.132C147.323 245.654 147.463 244.268 147.623 242.687C149.053 242.449 150.406 242.225 151.954 242.172Z" fill="#DE9B5A"/>
<path d="M143.479 244.379C143.351 244.185 143.284 243.745 143.402 243.212C143.57 243.457 143.555 243.795 143.479 244.379Z" fill="#E9AD69"/>
<path d="M142.657 250.938C142.351 250.018 142.306 249.078 142.468 247.941C143.438 248.436 144.201 249.126 144.964 249.817C144.282 250.184 143.6 250.55 142.657 250.938Z" fill="#75A235"/>
<path d="M139.407 230.72C139.45 234.94 139.328 239.178 138.985 243.625C138.554 242.254 138.343 240.675 138.142 238.775C138.386 236.136 138.619 233.817 138.886 231.169C138.92 230.841 139.24 230.739 139.407 230.72Z" fill="#556798"/>
<path d="M312.898 167.555C311.935 166.528 308.408 166.388 312.386 163.69C309.639 164.895 307.443 161.052 305.741 164.857C305.148 163.754 303.842 162.118 304.204 161.044C304.614 159.828 306.406 158.591 307.799 158.288C311.244 157.541 314.35 160.202 316.133 164.985C315.195 165.807 314.205 166.674 312.898 167.555Z" fill="#573158"/>
<path d="M138.136 163.097C138.306 162.96 138.52 163.074 138.771 163.448C138.609 163.563 138.4 163.443 138.136 163.097Z" fill="#698333"/>
<path d="M138.038 245.707C137.947 246.827 137.58 248.031 137.019 249.425C137.138 248.341 137.45 247.065 138.038 245.707Z" fill="#556798"/>
<path d="M136.369 250.267C136.44 250.437 136.314 250.666 135.996 250.966C135.928 250.8 136.05 250.563 136.369 250.267Z" fill="#556798"/>
</svg>
