<svg width="25" height="24" viewBox="0 0 25 24" fill="none" xmlns="http://www.w3.org/2000/svg">
<path d="M19.4568 18.7851C19.9206 18.3245 20.6641 18.3245 21.1279 18.7851L24.1935 21.2597H24.2468C24.867 21.8866 24.867 22.903 24.2468 23.5298C23.6265 24.1567 22.621 24.1567 22.0008 23.5298L19.4568 20.6142L19.3602 20.5052C19.1804 20.2776 19.0811 19.9938 19.0811 19.6996C19.0811 19.3565 19.2163 19.0274 19.4568 18.7851ZM11.0051 0C13.735 0 16.3531 1.09612 18.2835 3.04724C20.2138 4.99835 21.2983 7.64462 21.2983 10.4039C21.2983 16.1498 16.6898 20.8078 11.0051 20.8078C5.32032 20.8078 0.711914 16.1498 0.711914 10.4039C0.711914 4.65799 5.32032 0 11.0051 0Z" fill="#22A36D"/>
</svg>
