<svg width="23" height="24" viewBox="0 0 23 24" fill="none" xmlns="http://www.w3.org/2000/svg">
<g id="Iconly/Bold/Home">
<g id="Home">
<path id="Vector" d="M7.96173 22.528V18.8587C7.96173 17.9221 8.7266 17.1628 9.67012 17.1628H13.1191C13.5722 17.1628 14.0068 17.3414 14.3271 17.6595C14.6475 17.9776 14.8275 18.4089 14.8275 18.8587V22.528C14.8246 22.9174 14.9785 23.2918 15.2548 23.5682C15.5312 23.8446 15.9073 24 16.2995 24H18.6526C19.7516 24.0028 20.8065 23.5714 21.5846 22.801C22.3627 22.0305 22.8 20.9844 22.8 19.8934V9.44023C22.8 8.55895 22.4065 7.72301 21.7255 7.1576L13.7208 0.811042C12.3284 -0.301726 10.3333 -0.265797 8.98246 0.896374L1.16041 7.1576C0.447289 7.70634 0.0210627 8.54476 0 9.44023V19.8827C0 22.1566 1.85686 24 4.14741 24H6.44674C7.26147 24 7.92359 23.3474 7.9295 22.5387L7.96173 22.528Z" fill="#22A36D"/>
</g>
</g>
</svg>
