<svg width="26" height="24" viewBox="0 0 26 24" fill="none" xmlns="http://www.w3.org/2000/svg">
<path d="M8.55752 0.000195363C9.3533 0.0243967 10.1238 0.163342 10.8703 0.417232H10.9448C10.9954 0.441232 11.0333 0.467758 11.0585 0.491757C11.3377 0.58144 11.6017 0.682491 11.8543 0.821436L12.3343 1.03617C12.5238 1.13722 12.7511 1.32543 12.8774 1.40248C13.0038 1.477 13.1427 1.55406 13.2564 1.64121C14.6597 0.568809 16.3637 -0.0122343 18.1195 0.000195363C18.9165 0.000195363 19.7123 0.112816 20.4689 0.366707C25.1311 1.88247 26.8111 6.99818 25.4078 11.4697C24.612 13.7547 23.311 15.8401 21.607 17.5441C19.1679 19.9062 16.4913 22.003 13.6101 23.8093L13.2943 24L12.9659 23.7966C10.0745 22.003 7.3828 19.9062 4.92095 17.5315C3.22835 15.8275 1.92605 13.7547 1.11764 11.4697C-0.3097 6.99818 1.37027 1.88247 6.08304 0.340181C6.44935 0.213867 6.82702 0.125448 7.20597 0.0761853H7.35754C7.71248 0.0243966 8.0649 0.000195363 8.41858 0.000195363H8.55752ZM19.8121 3.99191C19.2942 3.81381 18.7258 4.09296 18.5363 4.62348C18.3595 5.154 18.6374 5.73504 19.1679 5.92325C19.9775 6.2264 20.5194 7.02344 20.5194 7.90637V7.94553C20.4954 8.23479 20.5826 8.51394 20.7594 8.72867C20.9363 8.94341 21.2015 9.06846 21.4794 9.09498C21.9973 9.08109 22.4394 8.66552 22.4773 8.13374V7.98342C22.5152 6.21377 21.4428 4.61085 19.8121 3.99191Z" fill="#22A36D"/>
</svg>
